<svg width="63" height="71" viewBox="0 0 63 71" fill="none" xmlns="http://www.w3.org/2000/svg">
<path d="M60.0455 16.8235L39.6286 5.13326C39.3775 4.98888 39.0662 5.16812 39.0662 5.45689V13.0446C39.0662 13.8063 39.478 14.5084 40.1408 14.8867L52.7745 22.116C53.4374 22.4944 53.8491 23.2014 53.8491 23.9581V47.5975C53.8491 48.3593 53.4374 49.0613 52.7745 49.4397L32.1317 61.2594C31.4689 61.6377 30.6504 61.6377 29.9826 61.2594L9.33974 49.4446C8.67692 49.0663 8.26516 48.3593 8.26516 47.6025V23.9631C8.26516 23.2014 8.67692 22.4993 9.33974 22.121L21.9685 14.8917C22.6313 14.5133 23.043 13.8063 23.043 13.0496V5.45689C23.043 5.17309 22.7317 4.99386 22.4806 5.13326L2.06378 16.8235C0.788354 17.5554 0 18.9046 0 20.3684V51.1922C0 52.656 0.788354 54.0102 2.06378 54.7421L28.9883 70.1565C29.626 70.5199 30.3391 70.7041 31.0521 70.7041C31.7651 70.7041 32.4782 70.5199 33.1159 70.1565L60.0404 54.7421C61.3209 54.0102 62.1042 52.656 62.1042 51.1922V20.3684C62.1092 18.9046 61.3209 17.5554 60.0455 16.8235Z" fill="white"/>
<path d="M47.9853 25.3572L35.8336 18.4018C35.4369 18.1728 35.1908 17.7545 35.1908 17.2965V2.80816C35.1908 2.67373 35.1205 2.54926 35 2.47956L33.122 1.40414C31.8416 0.672253 30.2699 0.672253 28.9894 1.40414L27.1165 2.48454C27.001 2.55424 26.9257 2.67871 26.9257 2.81314V17.2965C26.9257 17.7545 26.6796 18.1728 26.2829 18.4018L14.1312 25.3572C13.7345 25.5862 13.4885 26.0044 13.4885 26.4625V45.1031C13.4885 45.5612 13.7345 45.9794 14.1312 46.2084L30.4155 55.5287C30.8122 55.7578 31.3043 55.7578 31.701 55.5287L47.9853 46.2084C48.382 45.9794 48.628 45.5662 48.628 45.1081C48.628 41.9615 48.628 29.6041 48.628 26.4575C48.628 25.9994 48.382 25.5812 47.9853 25.3572ZM29.5418 50.9582L25.0778 48.4041C24.9774 48.3443 24.9121 48.2348 24.9121 48.1203V29.5692C24.9121 29.3153 24.6359 29.156 24.415 29.2855L17.0336 33.5125C16.8126 33.6369 16.5365 33.4826 16.5365 33.2287V28.2399C16.5365 28.1204 16.6017 28.0159 16.7022 27.9561L29.5418 20.6024C29.7627 20.4779 30.0389 20.6323 30.0389 20.8862V50.6694C30.0389 50.9283 29.7627 51.0876 29.5418 50.9582ZM45.0779 33.5075L37.6965 29.2805C37.4756 29.156 37.1994 29.3103 37.1994 29.5643V48.1153C37.1994 48.2348 37.1341 48.3393 37.0337 48.3991L32.5697 50.9532C32.3487 51.0777 32.0726 50.9233 32.0726 50.6694V20.8912C32.0726 20.6373 32.3487 20.4779 32.5697 20.6074L45.4093 27.9611C45.5097 28.0208 45.575 28.1304 45.575 28.2449V33.2287C45.58 33.4776 45.3039 33.6369 45.0779 33.5075Z" fill="white"/>
</svg>
