<svg xmlns="http://www.w3.org/2000/svg" width="275" height="74" viewBox="0 0 275 74" fill="none">
<g clip-path="url(#clip0_39905_649)">
<path d="M60.0455 16.8235L39.6286 5.13328C39.3775 4.98889 39.0662 5.16813 39.0662 5.4569V13.0446C39.0662 13.8064 39.478 14.5084 40.1408 14.8868L52.7745 22.116C53.4374 22.4944 53.8491 23.2014 53.8491 23.9581V47.5975C53.8491 48.3593 53.4374 49.0613 52.7745 49.4397L32.1317 61.2594C31.4689 61.6378 30.6504 61.6378 29.9826 61.2594L9.33974 49.4447C8.67692 49.0663 8.26516 48.3593 8.26516 47.6025V23.9631C8.26516 23.2014 8.67692 22.4994 9.33974 22.121L21.9685 14.8917C22.6313 14.5133 23.043 13.8064 23.043 13.0496V5.4569C23.043 5.17311 22.7317 4.99387 22.4806 5.13328L2.06378 16.8235C0.788354 17.5554 0 18.9047 0 20.3684V51.1922C0 52.656 0.788354 54.0102 2.06378 54.7421L28.9883 70.1565C29.626 70.5199 30.3391 70.7042 31.0521 70.7042C31.7651 70.7042 32.4782 70.5199 33.1159 70.1565L60.0404 54.7421C61.3209 54.0102 62.1042 52.656 62.1042 51.1922V20.3684C62.1092 18.9047 61.3209 17.5554 60.0455 16.8235Z" fill="white"/>
<path d="M47.9851 25.3572L35.8334 18.4018C35.4367 18.1728 35.1906 17.7545 35.1906 17.2965V2.80816C35.1906 2.67373 35.1203 2.54926 34.9998 2.47956L33.1218 1.40414C31.8414 0.672253 30.2697 0.672253 28.9892 1.40414L27.1163 2.48454C27.0008 2.55424 26.9255 2.67871 26.9255 2.81314V17.2965C26.9255 17.7545 26.6794 18.1728 26.2827 18.4018L14.131 25.3572C13.7343 25.5862 13.4883 26.0044 13.4883 26.4625V45.1031C13.4883 45.5612 13.7343 45.9794 14.131 46.2084L30.4153 55.5287C30.812 55.7578 31.3041 55.7578 31.7008 55.5287L47.9851 46.2084C48.3817 45.9794 48.6278 45.5662 48.6278 45.1081C48.6278 41.9615 48.6278 29.6041 48.6278 26.4575C48.6278 25.9994 48.3817 25.5812 47.9851 25.3572ZM29.5416 50.9582L25.0776 48.4041C24.9772 48.3443 24.9119 48.2348 24.9119 48.1203V29.5692C24.9119 29.3153 24.6357 29.156 24.4148 29.2855L17.0334 33.5125C16.8124 33.6369 16.5362 33.4826 16.5362 33.2287V28.2399C16.5362 28.1204 16.6015 28.0159 16.702 27.9561L29.5416 20.6024C29.7625 20.4779 30.0387 20.6323 30.0387 20.8862V50.6694C30.0387 50.9283 29.7625 51.0876 29.5416 50.9582ZM45.0777 33.5075L37.6963 29.2805C37.4753 29.156 37.1992 29.3103 37.1992 29.5643V48.1153C37.1992 48.2348 37.1339 48.3393 37.0335 48.3991L32.5695 50.9532C32.3485 51.0777 32.0723 50.9233 32.0723 50.6694V20.8912C32.0723 20.6373 32.3485 20.4779 32.5695 20.6074L45.4091 27.9611C45.5095 28.0208 45.5748 28.1304 45.5748 28.2449V33.2287C45.5798 33.4776 45.3036 33.6369 45.0777 33.5075Z" fill="white"/>
<path d="M86.9055 49.9722C85.7205 49.2702 84.7865 48.3043 84.0986 47.0795C83.4157 45.8547 83.0742 44.5054 83.0742 43.0317C83.0742 41.5729 83.4157 40.2286 84.0986 39.0138C84.7815 37.799 85.7155 36.8331 86.9055 36.1211C88.0906 35.4092 89.4011 35.0557 90.8372 35.0557C91.8566 35.0557 92.7353 35.1901 93.4835 35.454C94.2267 35.7178 94.9799 36.161 95.7431 36.7684C95.9038 36.8879 96.0092 37.0123 96.0645 37.1368C96.1197 37.2613 96.1448 37.4156 96.1448 37.5849C96.1448 37.8538 96.0494 38.0728 95.8536 38.2421C95.6578 38.4164 95.4368 38.501 95.1807 38.501C94.9246 38.501 94.6936 38.4164 94.4777 38.2421C93.9304 37.7791 93.3931 37.4405 92.8709 37.2364C92.3487 37.0322 91.6708 36.9277 90.8423 36.9277C89.7978 36.9277 88.8337 37.2015 87.955 37.7442C87.0762 38.2869 86.3783 39.0287 85.8661 39.9697C85.3489 40.9058 85.0928 41.9264 85.0928 43.0317C85.0928 44.147 85.3489 45.1726 85.8661 46.1036C86.3833 47.0347 87.0813 47.7715 87.955 48.3192C88.8337 48.8619 89.7928 49.1357 90.8423 49.1357C92.1277 49.1357 93.363 48.6976 94.543 47.8213C94.769 47.662 94.9899 47.5823 95.2058 47.5823C95.4619 47.5823 95.6728 47.672 95.8385 47.8512C96.0042 48.0304 96.0896 48.2644 96.0896 48.5582C96.0896 48.837 95.9841 49.0859 95.7682 49.295C94.3221 50.4501 92.6801 51.0277 90.8423 51.0277C89.4011 51.0277 88.0906 50.6792 86.9055 49.9722Z" fill="white"/>
<path d="M110.864 50.5298C110.663 50.3306 110.562 50.0867 110.562 49.7929V36.2954C110.562 35.9917 110.663 35.7427 110.864 35.5485C111.065 35.3544 111.311 35.2598 111.607 35.2598C111.913 35.2598 112.164 35.3544 112.36 35.5485C112.556 35.7427 112.651 35.9917 112.651 36.2954V42.016H121.981V36.2954C121.981 35.9917 122.082 35.7427 122.282 35.5485C122.483 35.3544 122.729 35.2598 123.026 35.2598C123.322 35.2598 123.563 35.3544 123.759 35.5485C123.954 35.7427 124.05 35.9917 124.05 36.2954V49.7929C124.05 50.0966 123.954 50.3456 123.759 50.5397C123.563 50.7339 123.322 50.8285 123.026 50.8285C122.729 50.8285 122.483 50.7289 122.282 50.5298C122.082 50.3306 121.981 50.0867 121.981 49.7929V43.8532H112.651V49.7929C112.651 50.0867 112.556 50.3306 112.36 50.5298C112.164 50.7289 111.913 50.8285 111.607 50.8285C111.316 50.8285 111.065 50.7289 110.864 50.5298Z" fill="white"/>
<path d="M139.514 50.5298C139.313 50.3306 139.213 50.0867 139.213 49.7929V36.2954C139.213 35.9917 139.313 35.7427 139.514 35.5485C139.715 35.3544 139.961 35.2598 140.257 35.2598H149.346C149.652 35.2598 149.903 35.3494 150.089 35.5286C150.275 35.7079 150.37 35.9419 150.37 36.2356C150.37 36.5144 150.275 36.7385 150.089 36.9127C149.903 37.087 149.652 37.1716 149.346 37.1716H141.302V42.016H147.071C147.368 42.016 147.609 42.1056 147.804 42.2849C148 42.4641 148.096 42.6931 148.096 42.9719C148.096 43.2507 148 43.4798 147.804 43.659C147.609 43.8383 147.368 43.9279 147.071 43.9279H141.302V48.9117H149.346C149.652 48.9117 149.903 48.9963 150.089 49.1706C150.275 49.3448 150.37 49.5689 150.37 49.8477C150.37 50.1414 150.275 50.3754 150.089 50.5547C149.903 50.7339 149.652 50.8235 149.346 50.8235H140.257C139.966 50.8285 139.72 50.7289 139.514 50.5298Z" fill="white"/>
<path d="M264.899 50.5298C264.703 50.3306 264.607 50.0867 264.607 49.7929V36.2954C264.607 36.0016 264.708 35.7576 264.909 35.5585C265.11 35.3593 265.351 35.2598 265.632 35.2598C265.928 35.2598 266.174 35.3593 266.375 35.5585C266.576 35.7576 266.676 36.0066 266.676 36.2954V48.7573H273.957C274.253 48.7573 274.499 48.8569 274.7 49.056C274.901 49.2552 275.002 49.5041 275.002 49.7929C275.002 50.0867 274.901 50.3306 274.7 50.5298C274.499 50.7289 274.253 50.8285 273.957 50.8285H265.632C265.336 50.8285 265.094 50.7289 264.899 50.5298Z" fill="white"/>
<path d="M179.851 35.5585C180.052 35.7576 180.152 36.0066 180.152 36.2954V49.7929C180.152 50.0867 180.047 50.3306 179.841 50.5298C179.635 50.7289 179.389 50.8285 179.108 50.8285C178.812 50.8285 178.566 50.7289 178.365 50.5298C178.164 50.3306 178.064 50.0867 178.064 49.7929V39.8851L173.198 49.7132C172.972 50.0568 172.671 50.231 172.294 50.231C171.852 50.231 171.531 50.0269 171.33 49.6137L166.524 40.0643V49.7929C166.524 50.0867 166.424 50.3306 166.223 50.5298C166.022 50.7289 165.776 50.8285 165.48 50.8285C165.184 50.8285 164.938 50.7289 164.737 50.5298C164.536 50.3306 164.436 50.0867 164.436 49.7929V36.2954C164.436 36.0016 164.536 35.7576 164.737 35.5585C164.938 35.3593 165.184 35.2598 165.48 35.2598C165.882 35.2598 166.188 35.444 166.404 35.8174L172.374 47.6819L178.184 35.8174C178.4 35.444 178.706 35.2598 179.108 35.2598C179.404 35.2598 179.65 35.3593 179.851 35.5585Z" fill="white"/>
<path d="M195.62 50.5298C195.419 50.3306 195.318 50.0867 195.318 49.7929V36.2954C195.318 35.9917 195.419 35.7427 195.62 35.5485C195.82 35.3544 196.067 35.2598 196.363 35.2598C196.669 35.2598 196.92 35.3544 197.116 35.5485C197.312 35.7427 197.407 35.9917 197.407 36.2954V49.7929C197.407 50.0867 197.312 50.3306 197.116 50.5298C196.92 50.7289 196.669 50.8285 196.363 50.8285C196.067 50.8285 195.82 50.7289 195.62 50.5298Z" fill="white"/>
<path d="M215.673 49.9722C214.488 49.2702 213.554 48.3043 212.866 47.0795C212.183 45.8547 211.842 44.5054 211.842 43.0317C211.842 41.5729 212.183 40.2286 212.866 39.0138C213.549 37.799 214.483 36.8331 215.673 36.1211C216.858 35.4092 218.169 35.0557 219.605 35.0557C220.624 35.0557 221.503 35.1901 222.251 35.454C222.994 35.7178 223.747 36.161 224.511 36.7684C224.671 36.8879 224.777 37.0123 224.832 37.1368C224.887 37.2613 224.912 37.4156 224.912 37.5849C224.912 37.8538 224.817 38.0728 224.621 38.2421C224.425 38.4164 224.204 38.501 223.948 38.501C223.692 38.501 223.461 38.4164 223.245 38.2421C222.698 37.7791 222.161 37.4405 221.638 37.2364C221.116 37.0322 220.438 36.9277 219.61 36.9277C218.565 36.9277 217.601 37.2015 216.723 37.7442C215.844 38.2869 215.146 39.0287 214.634 39.9697C214.116 40.9058 213.86 41.9264 213.86 43.0317C213.86 44.147 214.116 45.1726 214.634 46.1036C215.151 47.0347 215.849 47.7715 216.723 48.3192C217.601 48.8619 218.56 49.1357 219.61 49.1357C220.895 49.1357 222.131 48.6976 223.311 47.8213C223.537 47.662 223.757 47.5823 223.973 47.5823C224.23 47.5823 224.44 47.672 224.606 47.8512C224.772 48.0304 224.857 48.2644 224.857 48.5582C224.857 48.837 224.752 49.0859 224.536 49.295C223.09 50.4501 221.448 51.0277 219.61 51.0277C218.169 51.0277 216.858 50.6792 215.673 49.9722Z" fill="white"/>
<path d="M251.177 49.8128C251.177 50.0916 251.076 50.3306 250.876 50.5298C250.675 50.7289 250.429 50.8285 250.132 50.8285C249.932 50.8285 249.741 50.7737 249.56 50.6592C249.379 50.5447 249.249 50.3904 249.168 50.1912L248.044 47.3981H240.823L239.678 50.1912C239.583 50.3904 239.452 50.5447 239.276 50.6592C239.1 50.7737 238.915 50.8285 238.714 50.8285C238.418 50.8285 238.177 50.7239 237.981 50.5198C237.785 50.3157 237.689 50.0717 237.689 49.7929C237.689 49.6585 237.725 49.5091 237.79 49.3348L243.439 35.9568C243.64 35.4938 243.966 35.2598 244.423 35.2598C244.905 35.2598 245.237 35.4938 245.407 35.9568L251.076 49.3747C251.142 49.5489 251.177 49.6933 251.177 49.8128ZM241.526 45.6854H247.335L244.458 38.5856L241.526 45.6854Z" fill="white"/>
<path d="M85.5849 70.3056C84.8066 69.8426 84.194 69.2103 83.7471 68.4137C83.3002 67.6121 83.0742 66.7259 83.0742 65.76C83.0742 64.804 83.3002 63.9228 83.7471 63.1262C84.194 62.3296 84.8066 61.6973 85.5849 61.2293C86.3632 60.7662 87.2219 60.5322 88.1609 60.5322C88.8287 60.5322 89.4062 60.6169 89.8932 60.7911C90.3803 60.9654 90.8724 61.2542 91.3745 61.6525C91.48 61.7321 91.5503 61.8118 91.5854 61.8964C91.6206 61.9811 91.6407 62.0757 91.6407 62.1902C91.6407 62.3644 91.5754 62.5088 91.4498 62.6233C91.3243 62.7378 91.1737 62.7926 91.008 62.7926C90.8423 62.7926 90.6866 62.7378 90.546 62.6233C90.1845 62.3196 89.833 62.1005 89.4915 61.9611C89.1501 61.8267 88.7032 61.757 88.1609 61.757C87.478 61.757 86.8453 61.9363 86.2678 62.2947C85.6903 62.6532 85.2334 63.1361 84.897 63.7485C84.5605 64.3609 84.3898 65.0331 84.3898 65.755C84.3898 66.4869 84.5605 67.159 84.897 67.7664C85.2334 68.3738 85.6903 68.8618 86.2678 69.2153C86.8453 69.5737 87.4729 69.748 88.1609 69.748C89.0045 69.748 89.8129 69.4592 90.5862 68.8867C90.7368 68.7821 90.8824 68.7273 91.023 68.7273C91.1887 68.7273 91.3293 68.7871 91.4398 68.9066C91.5503 69.0261 91.6055 69.1804 91.6055 69.3696C91.6055 69.5538 91.5352 69.7131 91.3946 69.8526C90.4456 70.6093 89.371 70.9877 88.1659 70.9877C87.2219 70.9977 86.3632 70.7687 85.5849 70.3056Z" fill="white"/>
<path d="M98.8707 64.0473C99.3527 64.3062 99.7293 64.6895 100.005 65.1924C100.277 65.6952 100.412 66.2977 100.412 66.9997V70.216C100.412 70.4052 100.347 70.5645 100.221 70.694C100.096 70.8184 99.9352 70.8832 99.7394 70.8832C99.5485 70.8832 99.3879 70.8184 99.2573 70.694C99.1318 70.5695 99.0665 70.4102 99.0665 70.216V66.9997C99.0665 66.2927 98.8757 65.76 98.4941 65.4015C98.1124 65.038 97.6053 64.8588 96.9726 64.8588C96.606 64.8588 96.2696 64.9335 95.9633 65.0829C95.657 65.2322 95.421 65.4314 95.2503 65.6853C95.0795 65.9392 94.9942 66.218 94.9942 66.5367V70.221C94.9942 70.4102 94.9339 70.5695 94.8084 70.6989C94.6828 70.8234 94.5222 70.8881 94.3213 70.8881C94.1305 70.8881 93.9698 70.8234 93.8393 70.6989C93.7137 70.5745 93.6484 70.4152 93.6484 70.221V61.3388C93.6484 61.1396 93.7137 60.9753 93.8393 60.8558C93.9648 60.7364 94.1255 60.6716 94.3213 60.6716C94.5222 60.6716 94.6879 60.7314 94.8084 60.8558C94.9289 60.9753 94.9942 61.1396 94.9942 61.3388V64.5402C95.2754 64.2614 95.6068 64.0473 95.9934 63.8929C96.3801 63.7386 96.7918 63.6639 97.2337 63.6639C97.8463 63.6539 98.3886 63.7834 98.8707 64.0473Z" fill="white"/>
<path d="M108.954 67.5921C108.838 67.7016 108.692 67.7564 108.517 67.7564H103.51C103.606 68.3638 103.887 68.8567 104.349 69.2351C104.811 69.6085 105.373 69.7977 106.041 69.7977C106.302 69.7977 106.578 69.7479 106.865 69.6533C107.151 69.5587 107.387 69.4392 107.568 69.2998C107.688 69.2052 107.834 69.1554 108.004 69.1554C108.175 69.1554 108.301 69.2003 108.401 69.2849C108.557 69.4143 108.637 69.5637 108.637 69.728C108.637 69.8873 108.567 70.0168 108.426 70.1213C108.13 70.3553 107.758 70.5495 107.312 70.6939C106.87 70.8433 106.443 70.9179 106.041 70.9179C105.323 70.9179 104.675 70.7636 104.103 70.4549C103.53 70.1462 103.089 69.718 102.767 69.1654C102.446 68.6177 102.285 67.9954 102.285 67.2983C102.285 66.6013 102.436 65.979 102.742 65.4213C103.043 64.8687 103.465 64.4355 104.007 64.1268C104.55 63.8182 105.162 63.6638 105.845 63.6638C106.523 63.6638 107.106 63.8132 107.598 64.1069C108.09 64.4057 108.466 64.8189 108.733 65.3467C108.999 65.8794 109.129 66.4868 109.129 67.1739C109.124 67.3481 109.064 67.4826 108.954 67.5921ZM104.284 65.3118C103.882 65.6603 103.631 66.1283 103.525 66.7108H107.914C107.834 66.1283 107.613 65.6603 107.256 65.3118C106.895 64.9633 106.428 64.789 105.845 64.789C105.203 64.789 104.68 64.9683 104.284 65.3118Z" fill="white"/>
<path d="M120.267 64.4008C120.739 64.8987 120.97 65.5907 120.97 66.4769V70.216C120.97 70.4052 120.91 70.5645 120.784 70.694C120.659 70.8185 120.498 70.8832 120.297 70.8832C120.106 70.8832 119.946 70.8185 119.815 70.694C119.69 70.5695 119.624 70.4102 119.624 70.216V66.4769C119.624 65.9442 119.489 65.5409 119.223 65.2671C118.957 64.9932 118.595 64.8538 118.148 64.8538C117.691 64.8538 117.315 65.0082 117.023 65.3218C116.727 65.6355 116.581 66.0338 116.581 66.5217V70.2061C116.581 70.3953 116.521 70.5546 116.396 70.684C116.27 70.8085 116.109 70.8732 115.909 70.8732C115.718 70.8732 115.557 70.8085 115.427 70.684C115.301 70.5596 115.236 70.4002 115.236 70.2061V66.467C115.236 65.9342 115.1 65.531 114.834 65.2571C114.568 64.9833 114.206 64.8439 113.759 64.8439C113.293 64.8439 112.916 64.9982 112.62 65.3119C112.323 65.6256 112.178 66.0239 112.178 66.5118V70.1961C112.178 70.3853 112.117 70.5446 111.992 70.6741C111.866 70.7985 111.706 70.8633 111.505 70.8633C111.314 70.8633 111.153 70.7985 111.023 70.6741C110.897 70.5496 110.832 70.3903 110.832 70.1961V64.3809C110.832 64.1817 110.897 64.0174 111.023 63.8979C111.148 63.7734 111.309 63.7137 111.505 63.7137C111.696 63.7137 111.856 63.7734 111.977 63.888C112.097 64.0074 112.168 64.1618 112.173 64.351C112.399 64.1269 112.675 63.9477 112.991 63.8232C113.308 63.6988 113.649 63.634 114.021 63.634C114.468 63.634 114.869 63.7237 115.226 63.9029C115.582 64.0821 115.873 64.336 116.099 64.6696C116.361 64.346 116.692 64.0921 117.089 63.9128C117.485 63.7286 117.922 63.639 118.404 63.639C119.178 63.6539 119.795 63.9029 120.267 64.4008Z" fill="white"/>
<path d="M123.387 62.2996C123.216 62.1303 123.131 61.9261 123.131 61.6921C123.131 61.4581 123.216 61.254 123.387 61.0847C123.558 60.9155 123.764 60.8308 124 60.8308C124.236 60.8308 124.441 60.9155 124.612 61.0847C124.783 61.254 124.868 61.4581 124.868 61.6921C124.868 61.9261 124.783 62.1303 124.612 62.2996C124.441 62.4688 124.236 62.5535 124 62.5535C123.764 62.5535 123.563 62.4738 123.387 62.2996ZM123.523 70.6789C123.397 70.5544 123.332 70.3951 123.332 70.2009V64.3857C123.332 64.1865 123.397 64.0222 123.523 63.9027C123.648 63.7832 123.809 63.7185 124.005 63.7185C124.205 63.7185 124.371 63.7783 124.492 63.9027C124.612 64.0272 124.677 64.1865 124.677 64.3857V70.2009C124.677 70.3951 124.617 70.5544 124.492 70.6789C124.366 70.8034 124.205 70.8681 124.005 70.8681C123.809 70.8681 123.648 70.8034 123.523 70.6789Z" fill="white"/>
<path d="M128.11 70.6443C127.583 70.4601 127.171 70.2211 126.87 69.9274C126.754 69.8129 126.699 69.6785 126.699 69.5241C126.699 69.315 126.785 69.1457 126.96 69.0163C127.126 68.8968 127.282 68.8321 127.422 68.8321C127.598 68.8321 127.764 68.9117 127.924 69.0661C128.09 69.2503 128.341 69.4096 128.678 69.544C129.009 69.6785 129.366 69.7482 129.747 69.7482C130.249 69.7482 130.636 69.6635 130.912 69.4992C131.188 69.3349 131.329 69.1109 131.329 68.8321C131.329 68.5632 131.193 68.3392 130.922 68.1599C130.651 67.9807 130.189 67.8313 129.536 67.7069C127.849 67.3832 127.006 66.6962 127.006 65.6406C127.006 65.2125 127.131 64.854 127.387 64.5553C127.643 64.2565 127.975 64.0375 128.386 63.8881C128.798 63.7387 129.24 63.6641 129.702 63.6641C130.274 63.6641 130.787 63.7537 131.239 63.9379C131.69 64.1221 132.047 64.376 132.313 64.6947C132.429 64.8341 132.484 64.9735 132.484 65.1129C132.484 65.2623 132.409 65.3967 132.258 65.5162C132.162 65.5859 132.037 65.6207 131.886 65.6207C131.66 65.6207 131.449 65.5361 131.269 65.3718C131.048 65.1726 130.817 65.0283 130.571 64.9486C130.325 64.864 130.028 64.8241 129.677 64.8241C129.275 64.8241 128.939 64.8938 128.683 65.0283C128.422 65.1627 128.296 65.3519 128.296 65.5958C128.296 65.7701 128.341 65.9145 128.427 66.034C128.512 66.1485 128.683 66.258 128.929 66.3576C129.175 66.4572 129.531 66.5567 129.998 66.6513C130.957 66.8405 131.635 67.1094 132.032 67.448C132.434 67.7865 132.629 68.2296 132.629 68.7673C132.629 69.1656 132.519 69.5341 132.298 69.8577C132.077 70.1863 131.756 70.4402 131.329 70.6294C130.902 70.8186 130.39 70.9082 129.792 70.9082C129.2 70.9182 128.637 70.8286 128.11 70.6443Z" fill="white"/>
<path d="M137.804 69.743C137.914 69.8625 137.97 70.0218 137.97 70.211C137.97 70.4002 137.899 70.5596 137.754 70.679C137.608 70.7985 137.422 70.8633 137.191 70.8633H136.955C136.523 70.8633 136.132 70.7537 135.775 70.5297C135.419 70.3056 135.143 70.0019 134.937 69.6235C134.736 69.2402 134.635 68.812 134.635 68.329V65.1028H134.028C133.842 65.1028 133.691 65.053 133.581 64.9484C133.465 64.8439 133.41 64.7144 133.41 64.5551C133.41 64.3809 133.465 64.2415 133.581 64.1369C133.696 64.0323 133.842 63.9776 134.028 63.9776H134.635V62.0956C134.635 61.9064 134.696 61.7471 134.821 61.6276C134.942 61.5081 135.102 61.4434 135.293 61.4434C135.484 61.4434 135.645 61.5031 135.765 61.6276C135.891 61.752 135.951 61.9064 135.951 62.0956V63.9776H137.071C137.257 63.9776 137.402 64.0274 137.518 64.1369C137.633 64.2415 137.688 64.3809 137.688 64.5551C137.688 64.7095 137.633 64.8439 137.518 64.9484C137.402 65.053 137.252 65.1028 137.071 65.1028H135.951V68.329C135.951 68.6776 136.046 68.9713 136.242 69.2053C136.433 69.4393 136.674 69.5588 136.955 69.5588H137.402C137.563 69.5588 137.693 69.6235 137.804 69.743Z" fill="white"/>
<path d="M144.238 63.8482C144.499 63.9876 144.634 64.1618 144.634 64.3709C144.634 64.4307 144.629 64.4755 144.619 64.5004C144.539 64.7792 144.363 64.9186 144.092 64.9186C144.047 64.9186 143.982 64.9087 143.896 64.8937C143.545 64.834 143.259 64.7991 143.043 64.7991C142.41 64.7991 141.903 64.9435 141.516 65.2323C141.129 65.5211 140.939 65.9094 140.939 66.3973V70.2111C140.939 70.4202 140.883 70.5795 140.773 70.694C140.662 70.8086 140.497 70.8633 140.281 70.8633C140.07 70.8633 139.909 70.8085 139.794 70.699C139.678 70.5895 139.623 70.4252 139.623 70.2111V64.3709C139.623 64.1618 139.678 64.0025 139.794 63.888C139.909 63.7735 140.07 63.7187 140.281 63.7187C140.718 63.7187 140.939 63.9378 140.939 64.3709V64.6199C141.2 64.3162 141.526 64.0772 141.913 63.9029C142.299 63.7287 142.711 63.644 143.153 63.644C143.61 63.6391 143.977 63.7088 144.238 63.8482Z" fill="white"/>
<path d="M151.929 64.296C151.929 64.3857 151.904 64.4902 151.849 64.6097L147.817 73.5965C147.712 73.8653 147.541 73.9997 147.305 73.9997C147.214 73.9997 147.109 73.9748 146.988 73.9201C146.727 73.8056 146.592 73.6363 146.592 73.4122C146.592 73.3077 146.617 73.2031 146.672 73.0986L147.993 70.1611L145.03 64.5798C144.985 64.5002 144.965 64.4106 144.965 64.306C144.965 64.1915 145 64.0869 145.07 63.9923C145.141 63.8977 145.231 63.8231 145.346 63.7683C145.427 63.7334 145.512 63.7185 145.608 63.7185C145.854 63.7185 146.039 63.838 146.16 64.0869L148.57 68.8417L150.694 64.0969C150.81 63.843 150.98 63.7185 151.206 63.7185C151.322 63.7185 151.427 63.7384 151.523 63.7832C151.794 63.8878 151.929 64.0571 151.929 64.296Z" fill="white"/>
<path d="M158.907 62.3494C158.611 62.6731 158.46 63.0963 158.46 63.629V63.9825H159.806C159.992 63.9825 160.138 64.0323 160.253 64.1418C160.369 64.2464 160.424 64.3858 160.424 64.56C160.424 64.7144 160.369 64.8488 160.253 64.9534C160.138 65.0579 159.992 65.1077 159.806 65.1077H158.46V70.201C158.46 70.4002 158.4 70.5645 158.275 70.684C158.149 70.8035 157.978 70.8682 157.762 70.8682C157.587 70.8682 157.436 70.8084 157.306 70.684C157.175 70.5595 157.115 70.4002 157.115 70.201V65.1077H156.547C156.362 65.1077 156.211 65.0579 156.1 64.9534C155.985 64.8488 155.93 64.7193 155.93 64.56C155.93 64.3858 155.985 64.2464 156.1 64.1418C156.216 64.0373 156.362 63.9825 156.547 63.9825H157.115V63.7584C157.115 63.1411 157.24 62.5984 157.491 62.1304C157.742 61.6673 158.094 61.3039 158.546 61.045C158.998 60.7911 159.515 60.6616 160.092 60.6616C160.283 60.6616 160.444 60.7164 160.574 60.8309C160.7 60.9454 160.765 61.0848 160.765 61.2641C160.765 61.4383 160.7 61.5827 160.574 61.6972C160.449 61.8117 160.288 61.8665 160.092 61.8665C159.6 61.8665 159.204 62.0258 158.907 62.3494Z" fill="white"/>
<path d="M162.938 70.4552C162.386 70.1465 161.954 69.7183 161.648 69.1656C161.341 68.618 161.186 67.9956 161.186 67.2986C161.186 66.5916 161.341 65.9643 161.648 65.4166C161.954 64.8689 162.386 64.4408 162.938 64.1271C163.49 63.8184 164.118 63.6641 164.821 63.6641C165.514 63.6641 166.137 63.8184 166.684 64.1271C167.231 64.4358 167.663 64.864 167.974 65.4166C168.286 65.9643 168.441 66.5916 168.441 67.2986C168.441 67.9956 168.286 68.618 167.979 69.1656C167.673 69.7133 167.241 70.1415 166.694 70.4552C166.147 70.7638 165.519 70.9182 164.816 70.9182C164.113 70.9182 163.49 70.7638 162.938 70.4552ZM166.026 69.4295C166.383 69.2204 166.659 68.9316 166.855 68.5632C167.051 68.1948 167.151 67.7716 167.151 67.3036C167.151 66.8356 167.051 66.4124 166.855 66.034C166.659 65.6606 166.383 65.3668 166.026 65.1577C165.67 64.9486 165.268 64.844 164.821 64.844C164.374 64.844 163.972 64.9486 163.616 65.1577C163.259 65.3668 162.983 65.6606 162.777 66.034C162.576 66.4074 162.476 66.8306 162.476 67.3036C162.476 67.7716 162.576 68.1948 162.777 68.5632C162.978 68.9316 163.259 69.2254 163.616 69.4295C163.972 69.6386 164.374 69.7432 164.821 69.7432C165.268 69.7432 165.67 69.6386 166.026 69.4295Z" fill="white"/>
<path d="M175.07 63.8482C175.331 63.9876 175.466 64.1618 175.466 64.3709C175.466 64.4307 175.461 64.4755 175.451 64.5004C175.371 64.7792 175.195 64.9186 174.924 64.9186C174.879 64.9186 174.814 64.9087 174.728 64.8937C174.377 64.834 174.091 64.7991 173.875 64.7991C173.242 64.7991 172.735 64.9435 172.348 65.2323C171.961 65.5211 171.771 65.9094 171.771 66.3973V70.2111C171.771 70.4202 171.715 70.5795 171.605 70.694C171.495 70.8086 171.329 70.8633 171.113 70.8633C170.902 70.8633 170.741 70.8085 170.626 70.699C170.51 70.5895 170.455 70.4252 170.455 70.2111V64.3709C170.455 64.1618 170.51 64.0025 170.626 63.888C170.741 63.7735 170.902 63.7187 171.113 63.7187C171.55 63.7187 171.771 63.9378 171.771 64.3709V64.6199C172.032 64.3162 172.358 64.0772 172.745 63.9029C173.131 63.7287 173.543 63.644 173.985 63.644C174.442 63.6391 174.809 63.7088 175.07 63.8482Z" fill="white"/>
<path d="M185.816 64.1419C186.363 64.4606 186.8 64.8937 187.121 65.4514C187.443 66.004 187.604 66.6214 187.604 67.2985V70.2111C187.604 70.4003 187.538 70.5596 187.413 70.6891C187.287 70.8135 187.126 70.8783 186.931 70.8783C186.735 70.8783 186.579 70.8135 186.449 70.6891C186.323 70.5646 186.258 70.4053 186.258 70.2111V69.7282C185.951 70.1016 185.575 70.3953 185.138 70.6044C184.701 70.8135 184.224 70.9181 183.717 70.9181C183.084 70.9181 182.512 70.7637 182 70.4501C181.488 70.1364 181.081 69.7033 180.79 69.1506C180.493 68.598 180.348 67.9806 180.348 67.3035C180.348 66.6264 180.503 66.009 180.82 65.4563C181.136 64.9037 181.573 64.4656 182.13 64.1469C182.688 63.8283 183.305 63.6689 183.983 63.6689C184.656 63.6689 185.269 63.8283 185.816 64.1419ZM185.173 69.4244C185.53 69.2104 185.806 68.9166 186.012 68.5482C186.218 68.1797 186.313 67.7615 186.313 67.3035C186.313 66.8404 186.213 66.4222 186.012 66.0488C185.811 65.6754 185.53 65.3817 185.173 65.1676C184.817 64.9535 184.42 64.8489 183.978 64.8489C183.541 64.8489 183.14 64.9535 182.788 65.1676C182.432 65.3817 182.15 65.6754 181.944 66.0488C181.739 66.4222 181.633 66.8404 181.633 67.3035C181.633 67.7665 181.739 68.1797 181.944 68.5482C182.15 68.9166 182.432 69.2104 182.788 69.4244C183.145 69.6385 183.541 69.7431 183.978 69.7431C184.42 69.7431 184.817 69.6385 185.173 69.4244Z" fill="white"/>
<path d="M199.072 64.1367C199.584 64.4503 199.991 64.8835 200.282 65.4361C200.578 65.9888 200.724 66.6062 200.724 67.2833C200.724 67.9604 200.568 68.5778 200.252 69.1304C199.935 69.6831 199.499 70.1212 198.941 70.4398C198.384 70.7585 197.766 70.9178 197.088 70.9178C196.41 70.9178 195.798 70.7585 195.25 70.4398C194.703 70.1212 194.266 69.6881 193.945 69.1304C193.624 68.5728 193.463 67.9604 193.463 67.2833V61.3237C193.463 61.1245 193.528 60.9602 193.654 60.8407C193.779 60.7212 193.94 60.6565 194.136 60.6565C194.337 60.6565 194.502 60.7162 194.623 60.8407C194.743 60.9602 194.809 61.1245 194.809 61.3237V64.8536C195.115 64.4802 195.492 64.1865 195.928 63.9774C196.365 63.7682 196.842 63.6637 197.349 63.6637C197.982 63.6687 198.56 63.823 199.072 64.1367ZM198.283 69.4242C198.64 69.2101 198.921 68.9163 199.127 68.5429C199.333 68.1695 199.438 67.7513 199.438 67.2883C199.438 66.8252 199.333 66.412 199.127 66.0436C198.921 65.6751 198.64 65.3814 198.283 65.1673C197.927 64.9532 197.53 64.8486 197.093 64.8486C196.656 64.8486 196.255 64.9532 195.903 65.1673C195.547 65.3814 195.271 65.6751 195.065 66.0436C194.859 66.412 194.763 66.8302 194.763 67.2883C194.763 67.7513 194.864 68.1695 195.065 68.5429C195.266 68.9163 195.547 69.2101 195.903 69.4242C196.26 69.6383 196.656 69.7428 197.093 69.7428C197.53 69.7428 197.927 69.6383 198.283 69.4242Z" fill="white"/>
<path d="M209.024 67.5923C208.908 67.7019 208.763 67.7566 208.587 67.7566H203.581C203.676 68.3641 203.957 68.857 204.419 69.2353C204.881 69.6088 205.444 69.798 206.111 69.798C206.373 69.798 206.649 69.7482 206.935 69.6536C207.221 69.559 207.457 69.4395 207.638 69.3001C207.758 69.2055 207.904 69.1557 208.075 69.1557C208.241 69.1557 208.371 69.2005 208.472 69.2851C208.627 69.4146 208.708 69.5639 208.708 69.7282C208.708 69.8876 208.637 70.017 208.497 70.1216C208.2 70.3556 207.829 70.5498 207.382 70.6941C206.94 70.8435 206.513 70.9182 206.111 70.9182C205.393 70.9182 204.746 70.7638 204.173 70.4552C203.601 70.1465 203.159 69.7183 202.838 69.1656C202.516 68.613 202.355 67.9956 202.355 67.2986C202.355 66.6016 202.506 65.9792 202.812 65.4216C203.114 64.8689 203.536 64.4358 204.078 64.1271C204.62 63.8184 205.233 63.6641 205.916 63.6641C206.593 63.6641 207.176 63.8134 207.668 64.1072C208.16 64.4059 208.537 64.8191 208.803 65.3469C209.069 65.8796 209.2 66.487 209.2 67.1741C209.2 67.3484 209.139 67.4828 209.024 67.5923ZM204.354 65.312C203.952 65.6606 203.701 66.1286 203.596 66.7111H207.984C207.904 66.1286 207.683 65.6606 207.327 65.312C206.965 64.9635 206.498 64.7893 205.916 64.7893C205.273 64.7893 204.756 64.9685 204.354 65.312Z" fill="white"/>
<path d="M214.382 69.743C214.492 69.8625 214.548 70.0218 214.548 70.211C214.548 70.4002 214.477 70.5596 214.332 70.679C214.186 70.7985 214 70.8633 213.769 70.8633H213.533C213.102 70.8633 212.71 70.7537 212.353 70.5297C211.997 70.3056 211.721 70.0019 211.515 69.6235C211.314 69.2402 211.213 68.812 211.213 68.329V65.1028H210.606C210.42 65.1028 210.269 65.053 210.159 64.9484C210.044 64.8439 209.988 64.7144 209.988 64.5551C209.988 64.3809 210.044 64.2415 210.159 64.1369C210.274 64.0323 210.42 63.9776 210.606 63.9776H211.213V62.0956C211.213 61.9064 211.274 61.7471 211.399 61.6276C211.52 61.5081 211.68 61.4434 211.871 61.4434C212.062 61.4434 212.223 61.5031 212.343 61.6276C212.469 61.752 212.529 61.9064 212.529 62.0956V63.9776H213.649C213.835 63.9776 213.98 64.0274 214.096 64.1369C214.211 64.2415 214.266 64.3809 214.266 64.5551C214.266 64.7095 214.211 64.8439 214.096 64.9484C213.98 65.053 213.83 65.1028 213.649 65.1028H212.529V68.329C212.529 68.6776 212.624 68.9713 212.82 69.2053C213.011 69.4393 213.252 69.5588 213.533 69.5588H213.98C214.141 69.5588 214.272 69.6235 214.382 69.743Z" fill="white"/>
<path d="M219.665 69.743C219.776 69.8625 219.831 70.0218 219.831 70.211C219.831 70.4002 219.761 70.5596 219.615 70.679C219.469 70.7985 219.284 70.8633 219.053 70.8633H218.817C218.385 70.8633 217.993 70.7537 217.637 70.5297C217.28 70.3056 217.004 70.0019 216.798 69.6235C216.597 69.2402 216.497 68.812 216.497 68.329V65.1028H215.889C215.703 65.1028 215.553 65.053 215.442 64.9484C215.327 64.8439 215.271 64.7144 215.271 64.5551C215.271 64.3809 215.327 64.2415 215.442 64.1369C215.558 64.0323 215.703 63.9776 215.889 63.9776H216.497V62.0956C216.497 61.9064 216.557 61.7471 216.682 61.6276C216.803 61.5081 216.964 61.4434 217.154 61.4434C217.345 61.4434 217.506 61.5031 217.627 61.6276C217.752 61.752 217.812 61.9064 217.812 62.0956V63.9776H218.932C219.118 63.9776 219.263 64.0274 219.379 64.1369C219.494 64.2415 219.55 64.3809 219.55 64.5551C219.55 64.7095 219.494 64.8439 219.379 64.9484C219.263 65.053 219.113 65.1028 218.932 65.1028H217.812V68.329C217.812 68.6776 217.908 68.9713 218.104 69.2053C218.294 69.4393 218.535 69.5588 218.817 69.5588H219.263C219.424 69.5588 219.555 69.6235 219.665 69.743Z" fill="white"/>
<path d="M227.78 67.5921C227.664 67.7016 227.519 67.7564 227.343 67.7564H222.337C222.432 68.3638 222.713 68.8567 223.175 69.2351C223.637 69.6085 224.199 69.7977 224.867 69.7977C225.128 69.7977 225.405 69.7479 225.691 69.6533C225.977 69.5587 226.213 69.4392 226.394 69.2998C226.514 69.2052 226.66 69.1554 226.831 69.1554C226.996 69.1554 227.127 69.2003 227.227 69.2849C227.383 69.4143 227.463 69.5637 227.463 69.728C227.463 69.8873 227.393 70.0168 227.252 70.1213C226.956 70.3553 226.585 70.5495 226.138 70.6939C225.696 70.8433 225.269 70.9179 224.867 70.9179C224.149 70.9179 223.501 70.7636 222.929 70.4549C222.357 70.1462 221.915 69.718 221.593 69.1654C221.272 68.6177 221.111 67.9954 221.111 67.2983C221.111 66.6013 221.262 65.979 221.568 65.4213C221.87 64.8687 222.291 64.4355 222.834 64.1268C223.376 63.8182 223.989 63.6638 224.671 63.6638C225.349 63.6638 225.932 63.8132 226.424 64.1069C226.916 64.4057 227.293 64.8189 227.559 65.3467C227.825 65.8794 227.955 66.4868 227.955 67.1739C227.95 67.3481 227.89 67.4826 227.78 67.5921ZM223.105 65.3118C222.703 65.6603 222.452 66.1283 222.347 66.7108H226.735C226.655 66.1283 226.434 65.6603 226.077 65.3118C225.716 64.9633 225.249 64.789 224.666 64.789C224.024 64.789 223.507 64.9683 223.105 65.3118Z" fill="white"/>
<path d="M234.288 63.8482C234.55 63.9876 234.685 64.1618 234.685 64.3709C234.685 64.4307 234.68 64.4755 234.67 64.5004C234.59 64.7792 234.414 64.9186 234.143 64.9186C234.098 64.9186 234.032 64.9087 233.947 64.8937C233.596 64.834 233.309 64.7991 233.093 64.7991C232.461 64.7991 231.954 64.9435 231.567 65.2323C231.18 65.5211 230.989 65.9094 230.989 66.3973V70.2111C230.989 70.4202 230.934 70.5795 230.824 70.694C230.713 70.8086 230.548 70.8633 230.332 70.8633C230.121 70.8633 229.96 70.8085 229.845 70.699C229.729 70.5895 229.674 70.4252 229.674 70.2111V64.3709C229.674 64.1618 229.729 64.0025 229.845 63.888C229.96 63.7735 230.121 63.7187 230.332 63.7187C230.768 63.7187 230.989 63.9378 230.989 64.3709V64.6199C231.251 64.3162 231.577 64.0772 231.964 63.9029C232.35 63.7287 232.762 63.644 233.204 63.644C233.661 63.6391 234.022 63.7088 234.288 63.8482Z" fill="white"/>
<path d="M247.996 63.8631C248.087 63.9577 248.137 64.0922 248.137 64.2565C248.137 64.3959 248.117 64.5203 248.072 64.6349L246.123 70.4352C246.078 70.5547 245.998 70.6592 245.887 70.7438C245.772 70.8285 245.646 70.8683 245.506 70.8683C245.355 70.8683 245.225 70.8285 245.104 70.7438C244.983 70.6592 244.908 70.5596 244.873 70.4352L243.583 65.6904L242.227 70.4352C242.182 70.5547 242.101 70.6592 241.981 70.7438C241.86 70.8285 241.73 70.8683 241.594 70.8683C241.453 70.8683 241.323 70.8285 241.207 70.7438C241.087 70.6592 241.007 70.5596 240.961 70.4352L239.013 64.6349C238.978 64.5203 238.963 64.4008 238.963 64.2714C238.963 63.903 239.149 63.7237 239.515 63.7237C239.681 63.7237 239.822 63.7735 239.932 63.8681C240.042 63.9627 240.133 64.1171 240.203 64.3262L241.624 68.7274L242.97 64.2216C243.015 64.0722 243.09 63.9528 243.201 63.8631C243.311 63.7735 243.452 63.7237 243.628 63.7237C243.793 63.7237 243.934 63.7685 244.045 63.8631C244.155 63.9528 244.23 64.0722 244.275 64.2216L245.461 68.822L246.912 64.3262C247.032 63.9279 247.263 63.7237 247.595 63.7237C247.765 63.7188 247.906 63.7685 247.996 63.8631Z" fill="white"/>
<path d="M250.635 70.4552C250.083 70.1465 249.651 69.7183 249.345 69.1656C249.038 68.613 248.883 67.9956 248.883 67.2986C248.883 66.5916 249.038 65.9643 249.345 65.4166C249.651 64.8689 250.083 64.4408 250.635 64.1271C251.188 63.8184 251.815 63.6641 252.518 63.6641C253.211 63.6641 253.834 63.8184 254.381 64.1271C254.929 64.4358 255.36 64.864 255.672 65.4166C255.983 65.9643 256.139 66.5916 256.139 67.2986C256.139 67.9956 255.983 68.618 255.677 69.1656C255.37 69.7133 254.939 70.1415 254.391 70.4552C253.844 70.7638 253.216 70.9182 252.513 70.9182C251.81 70.9182 251.188 70.7638 250.635 70.4552ZM253.728 69.4295C254.085 69.2204 254.361 68.9316 254.557 68.5632C254.753 68.1948 254.853 67.7716 254.853 67.3036C254.853 66.8356 254.753 66.4124 254.557 66.034C254.361 65.6606 254.085 65.3668 253.728 65.1577C253.372 64.9486 252.97 64.844 252.523 64.844C252.076 64.844 251.675 64.9486 251.318 65.1577C250.962 65.3668 250.685 65.6606 250.48 66.034C250.279 66.4074 250.178 66.8306 250.178 67.3036C250.178 67.7716 250.279 68.1948 250.48 68.5632C250.68 68.9316 250.962 69.2254 251.318 69.4295C251.675 69.6386 252.076 69.7432 252.523 69.7432C252.97 69.7432 253.372 69.6386 253.728 69.4295Z" fill="white"/>
<path d="M262.772 63.8482C263.033 63.9876 263.169 64.1618 263.169 64.3709C263.169 64.4307 263.164 64.4755 263.154 64.5004C263.073 64.7792 262.898 64.9186 262.626 64.9186C262.581 64.9186 262.516 64.9087 262.431 64.8937C262.079 64.834 261.793 64.7991 261.572 64.7991C260.939 64.7991 260.432 64.9435 260.045 65.2323C259.659 65.5211 259.468 65.9094 259.468 66.3973V70.2111C259.468 70.4202 259.413 70.5795 259.302 70.694C259.192 70.8086 259.026 70.8633 258.81 70.8633C258.599 70.8633 258.439 70.8085 258.323 70.699C258.208 70.5895 258.152 70.4252 258.152 70.2111V64.3709C258.152 64.1618 258.208 64.0025 258.323 63.888C258.439 63.7735 258.599 63.7187 258.81 63.7187C259.247 63.7187 259.468 63.9378 259.468 64.3709V64.6199C259.729 64.3162 260.055 64.0772 260.442 63.9029C260.829 63.7287 261.24 63.644 261.682 63.644C262.144 63.6391 262.511 63.7088 262.772 63.8482Z" fill="white"/>
<path d="M265.243 70.5594C264.942 70.3553 264.706 70.0665 264.54 69.6981C264.374 69.3296 264.289 68.9114 264.289 68.4534V61.3187C264.289 61.1295 264.349 60.9702 264.475 60.8507C264.6 60.7312 264.756 60.6665 264.947 60.6665C265.138 60.6665 265.298 60.7263 265.419 60.8507C265.539 60.9702 265.605 61.1295 265.605 61.3187V68.4534C265.605 68.777 265.665 69.0409 265.79 69.25C265.916 69.4591 266.072 69.5636 266.262 69.5636H266.594C266.77 69.5636 266.91 69.6234 267.021 69.7478C267.131 69.8673 267.186 70.0267 267.186 70.2159C267.186 70.405 267.101 70.5644 266.935 70.6839C266.77 70.8034 266.554 70.8681 266.293 70.8681H266.267C265.886 70.8681 265.544 70.7635 265.243 70.5594Z" fill="white"/>
<path d="M274.815 60.846C274.936 60.9655 275.001 61.1298 275.001 61.329V67.2886C275.001 67.9657 274.84 68.5831 274.519 69.1357C274.198 69.6884 273.766 70.1265 273.214 70.4452C272.666 70.7638 272.054 70.9231 271.376 70.9231C270.698 70.9231 270.08 70.7638 269.523 70.4452C268.965 70.1265 268.529 69.6933 268.212 69.1357C267.896 68.5831 267.74 67.9657 267.74 67.2886C267.74 66.6115 267.886 65.9941 268.182 65.4414C268.478 64.8888 268.88 64.4556 269.392 64.142C269.904 63.8283 270.482 63.674 271.11 63.674C271.617 63.674 272.094 63.7785 272.531 63.9876C272.967 64.1967 273.344 64.4905 273.65 64.8639V61.3339C273.65 61.1348 273.716 60.9705 273.841 60.851C273.967 60.7315 274.127 60.6668 274.323 60.6668C274.529 60.6618 274.695 60.7265 274.815 60.846ZM272.571 69.4245C272.927 69.2104 273.203 68.9167 273.409 68.5432C273.61 68.1698 273.711 67.7516 273.711 67.2886C273.711 66.8256 273.61 66.4123 273.409 66.0439C273.208 65.6754 272.927 65.3817 272.571 65.1676C272.214 64.9535 271.818 64.849 271.376 64.849C270.939 64.849 270.537 64.9535 270.186 65.1676C269.829 65.3817 269.548 65.6754 269.342 66.0439C269.136 66.4123 269.031 66.8305 269.031 67.2886C269.031 67.7516 269.136 68.1698 269.342 68.5432C269.548 68.9167 269.829 69.2104 270.186 69.4245C270.542 69.6386 270.939 69.7431 271.376 69.7431C271.818 69.7431 272.214 69.6386 272.571 69.4245Z" fill="white"/>
<path d="M134.64 5.68584C135.358 5.68584 135.961 5.46677 136.428 5.03361C136.91 4.5905 137.166 3.98806 137.166 3.29601C137.166 2.594 136.915 1.9816 136.438 1.52355C135.971 1.08044 135.348 0.846436 134.635 0.846436H121.077C120.379 0.846436 119.757 1.0904 119.275 1.55343C118.783 2.02641 118.521 2.65872 118.521 3.38065V23.5149C118.521 24.212 118.778 24.8343 119.265 25.3173C119.752 25.8002 120.379 26.0541 121.082 26.0541H134.64C135.358 26.0541 135.981 25.8201 136.443 25.377C136.92 24.9239 137.171 24.3115 137.171 23.6095C137.171 22.9175 136.915 22.32 136.433 21.8719C135.961 21.4388 135.363 21.2197 134.645 21.2197H123.648V15.7629H131.256C131.944 15.7629 132.561 15.5339 133.033 15.0958C133.525 14.6427 133.786 14.0353 133.786 13.3432C133.786 12.6562 133.525 12.0487 133.033 11.5907C132.561 11.1575 131.949 10.9235 131.261 10.9235H123.653V5.68584H134.64Z" fill="white"/>
<path d="M107.784 1.5833C107.297 1.10035 106.67 0.846436 105.967 0.846436C105.013 0.846436 104.214 1.31942 103.687 2.23552L95.9088 18.1179L87.8797 2.18076C87.3825 1.3244 86.5841 0.851414 85.6351 0.851414C84.9321 0.851414 84.3045 1.10533 83.8174 1.58828C83.3303 2.07122 83.0742 2.69357 83.0742 3.39061V23.5249C83.0742 24.2219 83.3303 24.8443 83.8174 25.3272C84.7865 26.2931 86.4787 26.2881 87.4478 25.3272C87.9349 24.8443 88.191 24.2219 88.191 23.5249V13.2188L93.4584 23.6892C93.9254 24.6451 94.7539 25.1679 95.7984 25.1679C96.7022 25.1679 97.4554 24.7447 97.9826 23.9481L103.406 13.0146V23.5249C103.406 24.2219 103.662 24.8443 104.149 25.3272C104.636 25.8102 105.264 26.0641 105.967 26.0641C106.645 26.0641 107.262 25.8151 107.759 25.3372C108.261 24.8542 108.528 24.2269 108.528 23.5249V3.38563C108.528 2.68859 108.271 2.06624 107.784 1.5833Z" fill="white"/>
<path d="M158.541 15.7429C159.495 15.1504 160.288 14.3787 160.906 13.4427C161.73 12.193 162.146 10.7492 162.146 9.15597C162.146 7.56275 161.775 6.11392 161.037 4.85428C160.294 3.58468 159.244 2.58892 157.913 1.88691C156.603 1.19983 155.111 0.851318 153.469 0.851318H148.071C147.374 0.851318 146.751 1.09528 146.269 1.55831C145.777 2.0313 145.516 2.6636 145.516 3.38553V23.5198C145.516 24.2169 145.772 24.8392 146.259 25.3222C147.248 26.303 148.98 26.2731 149.919 25.3072C150.386 24.8293 150.637 24.2069 150.637 23.5198V17.1021H153.459L158.33 24.8541C158.837 25.6408 159.596 26.054 160.519 26.054C161.433 26.054 162.006 25.6756 162.322 25.362C162.779 24.9089 163.02 24.3214 163.02 23.6642C163.02 23.1414 162.869 22.6336 162.568 22.1606L158.541 15.7429ZM157.15 9.15597C157.15 10.0721 156.829 10.799 156.171 11.3666C155.473 11.974 154.589 12.2677 153.469 12.2677H150.632V5.68574H153.469C154.574 5.68574 155.443 6.00438 156.136 6.66159C156.819 7.30385 157.15 8.12038 157.15 9.15597Z" fill="white"/>
<path d="M216.773 1.55835C216.281 2.03134 216.02 2.66365 216.02 3.38557V17.2715C216.02 18.1328 215.804 18.8796 215.357 19.5518C214.905 20.2388 214.287 20.7566 213.469 21.15C212.63 21.5483 211.656 21.7524 210.572 21.7524C209.427 21.7524 208.402 21.5483 207.529 21.145C206.68 20.7517 206.037 20.2289 205.565 19.5418C205.108 18.8697 204.882 18.1278 204.882 17.2715V3.38557C204.882 2.66863 204.631 2.0413 204.154 1.56831C203.22 0.642251 201.503 0.612378 200.519 1.55337C200.027 2.02636 199.766 2.65867 199.766 3.38059V17.2665C199.766 19.0638 200.238 20.6869 201.177 22.0959C202.106 23.495 203.411 24.5953 205.058 25.372C206.675 26.1387 208.533 26.5271 210.572 26.5271C212.555 26.5271 214.363 26.1387 215.944 25.372C217.556 24.5903 218.832 23.48 219.736 22.071C220.644 20.6571 221.106 19.0389 221.106 17.2715V3.38557C221.106 2.66863 220.855 2.0413 220.378 1.56831C219.434 0.632294 217.747 0.622336 216.773 1.55835Z" fill="white"/>
<path d="M244.133 15.7432C245.087 15.1507 245.88 14.379 246.498 13.443C247.321 12.1933 247.738 10.7494 247.738 9.15621C247.738 7.56299 247.367 6.11416 246.628 4.85452C245.885 3.58493 244.836 2.58917 243.505 1.88715C242.195 1.20008 240.703 0.851562 239.061 0.851562H233.663C232.965 0.851562 232.343 1.09552 231.861 1.55855C231.369 2.03154 231.107 2.66385 231.107 3.38578V23.5201C231.107 24.2171 231.364 24.8395 231.851 25.3224C232.84 26.3032 234.572 26.2733 235.511 25.3075C235.978 24.8295 236.229 24.2071 236.229 23.5201V17.1024H239.051L243.922 24.8544C244.429 25.641 245.187 26.0543 246.111 26.0543C247.025 26.0543 247.598 25.6759 247.914 25.3622C248.371 24.9092 248.612 24.3217 248.612 23.6645C248.612 23.1417 248.461 22.6338 248.16 22.1609L244.133 15.7432ZM242.742 9.15621C242.742 10.0723 242.421 10.7992 241.763 11.3668C241.065 11.9742 240.181 12.268 239.061 12.268H236.224V5.68598H239.061C240.161 5.68598 241.035 6.00463 241.728 6.66183C242.411 7.3041 242.742 8.12062 242.742 9.15621Z" fill="white"/>
<path d="M274.374 1.59815C273.932 1.11023 273.35 0.851333 272.682 0.851333C271.738 0.851333 270.97 1.26457 270.457 2.0562L264.166 11.8844L257.979 2.1508C257.708 1.74752 257.427 1.44381 257.121 1.22972C256.282 0.647202 254.881 0.726863 254.002 1.51351C253.48 1.98152 253.209 2.59392 253.209 3.29095C253.209 3.78385 253.375 4.28173 253.696 4.77961L261.544 16.8731V23.5099C261.544 24.2069 261.801 24.8293 262.288 25.3122C262.775 25.7952 263.392 26.0491 264.075 26.0491C264.778 26.0491 265.406 25.7952 265.893 25.3122C266.38 24.8293 266.636 24.2069 266.636 23.5099V16.8831L274.55 4.77463C274.851 4.29667 275.002 3.79381 275.002 3.26605C275.002 2.62877 274.786 2.05123 274.374 1.59815Z" fill="white"/>
<path d="M188.844 15.6932V17.4756L181.634 21.603L174.423 17.4756V9.22075L181.634 5.09332L188.844 9.22075V10.9982H193.916V8.96683C193.916 7.3288 193.027 5.80529 191.596 4.98876L183.949 0.612393C182.518 -0.204131 180.74 -0.204131 179.314 0.612393L171.671 4.98876C170.24 5.80529 169.352 7.33378 169.352 8.96683V17.7196C169.352 19.3576 170.24 20.8811 171.671 21.7026L179.319 26.079C180.022 26.4773 180.82 26.6914 181.634 26.6914C182.447 26.6914 183.251 26.4773 183.954 26.079L191.596 21.7026C193.027 20.8861 193.916 19.3576 193.916 17.7196V15.6932H188.844Z" fill="white"/>
</g>
<defs>
<clipPath id="clip0_39905_649">
<rect width="275" height="74" fill="white"/>
</clipPath>
</defs>
</svg>