<svg width="192" height="74" viewBox="0 0 192 74" fill="none" xmlns="http://www.w3.org/2000/svg">
<path d="M3.90552 49.9723C2.72048 49.2703 1.7865 48.3044 1.09857 47.0796C0.415668 45.8548 0.0742188 44.5056 0.0742188 43.0318C0.0742188 41.573 0.415668 40.2288 1.09857 39.0139C1.78148 37.7991 2.71546 36.8332 3.90552 36.1212C5.09056 35.4093 6.40113 35.0558 7.83724 35.0558C8.85658 35.0558 9.73532 35.1902 10.4835 35.4541C11.2267 35.718 11.9799 36.1611 12.7431 36.7685C12.9038 36.888 13.0092 37.0124 13.0645 37.1369C13.1197 37.2614 13.1448 37.4157 13.1448 37.585C13.1448 37.8539 13.0494 38.0729 12.8536 38.2422C12.6578 38.4165 12.4368 38.5011 12.1807 38.5011C11.9246 38.5011 11.6936 38.4165 11.4777 38.2422C10.9304 37.7792 10.3931 37.4406 9.8709 37.2365C9.34867 37.0324 8.67079 36.9278 7.84227 36.9278C6.79783 36.9278 5.83372 37.2016 4.95498 37.7443C4.07625 38.287 3.37827 39.0289 2.8661 39.9699C2.3489 40.9059 2.09281 41.9265 2.09281 43.0318C2.09281 44.1471 2.3489 45.1727 2.8661 46.1037C3.3833 47.0348 4.08127 47.7716 4.95498 48.3193C5.83372 48.862 6.7928 49.1358 7.84227 49.1358C9.12774 49.1358 10.363 48.6977 11.543 47.8214C11.769 47.6621 11.9899 47.5825 12.2058 47.5825C12.4619 47.5825 12.6728 47.6721 12.8385 47.8513C13.0042 48.0305 13.0896 48.2645 13.0896 48.5583C13.0896 48.8371 12.9841 49.0861 12.7682 49.2952C11.3221 50.4502 9.68009 51.0278 7.84227 51.0278C6.40114 51.0278 5.09056 50.6793 3.90552 49.9723Z" fill="white"/>
<path d="M27.8638 50.5299C27.6629 50.3307 27.5625 50.0868 27.5625 49.793V36.2955C27.5625 35.9918 27.6629 35.7428 27.8638 35.5487C28.0646 35.3545 28.3107 35.2599 28.6069 35.2599C28.9132 35.2599 29.1643 35.3545 29.3601 35.5487C29.556 35.7428 29.6514 35.9918 29.6514 36.2955V42.0161H38.9811V36.2955C38.9811 35.9918 39.0815 35.7428 39.2824 35.5487C39.4832 35.3545 39.7293 35.2599 40.0255 35.2599C40.3218 35.2599 40.5628 35.3545 40.7587 35.5487C40.9545 35.7428 41.0499 35.9918 41.0499 36.2955V49.793C41.0499 50.0967 40.9545 50.3457 40.7587 50.5398C40.5628 50.734 40.3218 50.8286 40.0255 50.8286C39.7293 50.8286 39.4832 50.729 39.2824 50.5299C39.0815 50.3307 38.9811 50.0868 38.9811 49.793V43.8533H29.6514V49.793C29.6514 50.0868 29.556 50.3307 29.3601 50.5299C29.1643 50.729 28.9132 50.8286 28.6069 50.8286C28.3157 50.8286 28.0646 50.729 27.8638 50.5299Z" fill="white"/>
<path d="M56.5144 50.5299C56.3135 50.3308 56.2131 50.0868 56.2131 49.793V36.2955C56.2131 35.9918 56.3135 35.7429 56.5144 35.5487C56.7152 35.3545 56.9613 35.2599 57.2575 35.2599H66.3462C66.6525 35.2599 66.9036 35.3495 67.0893 35.5288C67.2751 35.708 67.3705 35.942 67.3705 36.2358C67.3705 36.5146 67.2751 36.7386 67.0893 36.9129C66.9036 37.0871 66.6525 37.1718 66.3462 37.1718H58.302V42.0161H64.0715C64.3678 42.0161 64.6088 42.1058 64.8046 42.285C65.0005 42.4642 65.0959 42.6933 65.0959 42.9721C65.0959 43.2509 65.0005 43.4799 64.8046 43.6592C64.6088 43.8384 64.3678 43.928 64.0715 43.928H58.302V48.9118H66.3462C66.6525 48.9118 66.9036 48.9964 67.0893 49.1707C67.2751 49.345 67.3705 49.569 67.3705 49.8478C67.3705 50.1416 67.2751 50.3756 67.0893 50.5548C66.9036 50.734 66.6525 50.8237 66.3462 50.8237H57.2575C56.9663 50.8286 56.7202 50.7291 56.5144 50.5299Z" fill="white"/>
<path d="M181.899 50.5299C181.703 50.3308 181.607 50.0868 181.607 49.7931V36.2955C181.607 36.0018 181.708 35.7578 181.909 35.5587C182.11 35.3595 182.351 35.2599 182.632 35.2599C182.928 35.2599 183.174 35.3595 183.375 35.5587C183.576 35.7578 183.676 36.0067 183.676 36.2955V48.7575H190.957C191.254 48.7575 191.5 48.857 191.7 49.0562C191.901 49.2554 192.002 49.5043 192.002 49.7931C192.002 50.0868 191.901 50.3308 191.7 50.5299C191.5 50.7291 191.254 50.8287 190.957 50.8287H182.632C182.336 50.8287 182.095 50.7291 181.899 50.5299Z" fill="white"/>
<path d="M96.851 35.5586C97.0518 35.7578 97.1522 36.0067 97.1522 36.2955V49.793C97.1522 50.0868 97.0468 50.3308 96.8409 50.5299C96.635 50.7291 96.389 50.8286 96.1078 50.8286C95.8115 50.8286 95.5655 50.7291 95.3646 50.5299C95.1638 50.3308 95.0633 50.0868 95.0633 49.793V39.8852L90.1976 49.7134C89.9717 50.0569 89.6704 50.2312 89.2938 50.2312C88.8519 50.2312 88.5306 50.027 88.3297 49.6138L83.5243 40.0645V49.793C83.5243 50.0868 83.4238 50.3308 83.223 50.5299C83.0221 50.7291 82.7761 50.8286 82.4798 50.8286C82.1835 50.8286 81.9375 50.7291 81.7366 50.5299C81.5358 50.3308 81.4354 50.0868 81.4354 49.793V36.2955C81.4354 36.0017 81.5358 35.7578 81.7366 35.5586C81.9375 35.3595 82.1835 35.2599 82.4798 35.2599C82.8815 35.2599 83.1878 35.4441 83.4037 35.8175L89.3741 47.682L95.1839 35.8175C95.3998 35.4441 95.7061 35.2599 96.1078 35.2599C96.4041 35.2599 96.6501 35.3595 96.851 35.5586Z" fill="white"/>
<path d="M112.62 50.5299C112.419 50.3307 112.318 50.0868 112.318 49.793V36.2955C112.318 35.9918 112.419 35.7428 112.62 35.5487C112.82 35.3545 113.067 35.2599 113.363 35.2599C113.669 35.2599 113.92 35.3545 114.116 35.5487C114.312 35.7428 114.407 35.9918 114.407 36.2955V49.793C114.407 50.0868 114.312 50.3307 114.116 50.5299C113.92 50.729 113.669 50.8286 113.363 50.8286C113.067 50.8286 112.82 50.729 112.62 50.5299Z" fill="white"/>
<path d="M132.673 49.9723C131.488 49.2703 130.554 48.3044 129.866 47.0796C129.183 45.8548 128.842 44.5056 128.842 43.0318C128.842 41.573 129.183 40.2288 129.866 39.0139C130.549 37.7991 131.483 36.8332 132.673 36.1212C133.858 35.4093 135.169 35.0558 136.605 35.0558C137.624 35.0558 138.503 35.1902 139.251 35.4541C139.994 35.718 140.747 36.1611 141.511 36.7685C141.671 36.888 141.777 37.0124 141.832 37.1369C141.887 37.2614 141.912 37.4157 141.912 37.585C141.912 37.8539 141.817 38.0729 141.621 38.2422C141.425 38.4165 141.204 38.5011 140.948 38.5011C140.692 38.5011 140.461 38.4165 140.245 38.2422C139.698 37.7792 139.161 37.4406 138.638 37.2365C138.116 37.0324 137.438 36.9278 136.61 36.9278C135.565 36.9278 134.601 37.2016 133.723 37.7443C132.844 38.287 132.146 39.0289 131.634 39.9699C131.116 40.9059 130.86 41.9265 130.86 43.0318C130.86 44.1471 131.116 45.1727 131.634 46.1037C132.151 47.0348 132.849 47.7716 133.723 48.3193C134.601 48.862 135.56 49.1358 136.61 49.1358C137.895 49.1358 139.131 48.6977 140.311 47.8214C140.537 47.6621 140.757 47.5825 140.973 47.5825C141.23 47.5825 141.44 47.6721 141.606 47.8513C141.772 48.0305 141.857 48.2645 141.857 48.5583C141.857 48.8371 141.752 49.0861 141.536 49.2952C140.09 50.4502 138.448 51.0278 136.61 51.0278C135.169 51.0278 133.858 50.6793 132.673 49.9723Z" fill="white"/>
<path d="M168.177 49.8129C168.177 50.0917 168.076 50.3307 167.876 50.5299C167.675 50.729 167.429 50.8286 167.132 50.8286C166.932 50.8286 166.741 50.7738 166.56 50.6593C166.379 50.5448 166.249 50.3905 166.168 50.1913L165.044 47.3982H157.823L156.678 50.1913C156.583 50.3905 156.452 50.5448 156.276 50.6593C156.1 50.7738 155.915 50.8286 155.714 50.8286C155.418 50.8286 155.177 50.7241 154.981 50.5199C154.785 50.3158 154.689 50.0718 154.689 49.793C154.689 49.6586 154.725 49.5092 154.79 49.335L160.439 35.9569C160.64 35.4939 160.966 35.2599 161.423 35.2599C161.905 35.2599 162.237 35.4939 162.407 35.9569L168.076 49.3748C168.142 49.5491 168.177 49.6934 168.177 49.8129ZM158.526 45.6855H164.335L161.458 38.5857L158.526 45.6855Z" fill="white"/>
<path d="M2.5849 70.3057C1.80659 69.8427 1.19398 69.2104 0.74708 68.4138C0.300178 67.6122 0.0742188 66.726 0.0742188 65.7601C0.0742188 64.8041 0.300178 63.9229 0.74708 63.1263C1.19398 62.3297 1.80659 61.6974 2.5849 61.2294C3.36321 60.7663 4.22187 60.5323 5.16086 60.5323C5.8287 60.5323 6.40616 60.617 6.89323 60.7912C7.3803 60.9655 7.8724 61.2543 8.37453 61.6526C8.47998 61.7322 8.55028 61.8119 8.58543 61.8965C8.62058 61.9812 8.64066 62.0758 8.64066 62.1903C8.64066 62.3645 8.57538 62.5089 8.44985 62.6234C8.32432 62.7379 8.17368 62.7927 8.00797 62.7927C7.84227 62.7927 7.68661 62.7379 7.54601 62.6234C7.18447 62.3197 6.83297 62.1006 6.49152 61.9612C6.15007 61.8268 5.70317 61.7571 5.16086 61.7571C4.47796 61.7571 3.84526 61.9363 3.26781 62.2948C2.69035 62.6533 2.23341 63.1362 1.89698 63.7486C1.56054 64.361 1.38981 65.0332 1.38981 65.7551C1.38981 66.487 1.56054 67.1591 1.89698 67.7665C2.23341 68.3739 2.69035 68.8619 3.26781 69.2154C3.84526 69.5738 4.47294 69.7481 5.16086 69.7481C6.00445 69.7481 6.81288 69.4593 7.58617 68.8868C7.73681 68.7822 7.88244 68.7274 8.02304 68.7274C8.18874 68.7274 8.32934 68.7872 8.43981 68.9067C8.55028 69.0262 8.60551 69.1805 8.60551 69.3697C8.60551 69.5539 8.53521 69.7132 8.39461 69.8527C7.44558 70.6094 6.37101 70.9878 5.16588 70.9878C4.22186 70.9978 3.36321 70.7688 2.5849 70.3057Z" fill="white"/>
<path d="M15.8707 64.0474C16.3527 64.3063 16.7293 64.6896 17.0055 65.1925C17.2766 65.6953 17.4122 66.2978 17.4122 66.9998V70.2161C17.4122 70.4053 17.3469 70.5646 17.2214 70.6941C17.0959 70.8185 16.9352 70.8833 16.7394 70.8833C16.5485 70.8833 16.3879 70.8185 16.2573 70.6941C16.1318 70.5696 16.0665 70.4103 16.0665 70.2161V66.9998C16.0665 66.2928 15.8757 65.7601 15.4941 65.4016C15.1124 65.0381 14.6053 64.8589 13.9726 64.8589C13.606 64.8589 13.2696 64.9336 12.9633 65.083C12.657 65.2323 12.421 65.4315 12.2503 65.6854C12.0795 65.9393 11.9942 66.2181 11.9942 66.5368V70.2211C11.9942 70.4103 11.9339 70.5696 11.8084 70.699C11.6828 70.8235 11.5222 70.8882 11.3213 70.8882C11.1305 70.8882 10.9698 70.8235 10.8393 70.699C10.7137 70.5746 10.6484 70.4153 10.6484 70.2211V61.3389C10.6484 61.1397 10.7137 60.9754 10.8393 60.8559C10.9648 60.7365 11.1255 60.6717 11.3213 60.6717C11.5222 60.6717 11.6879 60.7315 11.8084 60.8559C11.9289 60.9754 11.9942 61.1397 11.9942 61.3389V64.5403C12.2754 64.2615 12.6068 64.0474 12.9934 63.893C13.3801 63.7387 13.7918 63.664 14.2337 63.664C14.8463 63.654 15.3886 63.7835 15.8707 64.0474Z" fill="white"/>
<path d="M25.9535 67.5922C25.838 67.7017 25.6924 67.7565 25.5167 67.7565H20.5104C20.6058 68.3639 20.887 68.8568 21.3489 69.2352C21.8109 69.6086 22.3733 69.7978 23.0411 69.7978C23.3022 69.7978 23.5784 69.748 23.8646 69.6534C24.1509 69.5588 24.3869 69.4393 24.5676 69.2999C24.6881 69.2053 24.8338 69.1555 25.0045 69.1555C25.1752 69.1555 25.3008 69.2004 25.4012 69.285C25.5568 69.4144 25.6372 69.5638 25.6372 69.7281C25.6372 69.8874 25.5669 70.0169 25.4263 70.1214C25.13 70.3554 24.7584 70.5496 24.3115 70.694C23.8697 70.8434 23.4428 70.918 23.0411 70.918C22.3231 70.918 21.6753 70.7637 21.1029 70.455C20.5305 70.1463 20.0886 69.7181 19.7672 69.1655C19.4458 68.6178 19.2852 67.9955 19.2852 67.2984C19.2852 66.6014 19.4358 65.9791 19.7421 65.4214C20.0434 64.8688 20.4652 64.4356 21.0075 64.1269C21.5498 63.8183 22.1624 63.6639 22.8453 63.6639C23.5232 63.6639 24.1057 63.8133 24.5978 64.107C25.0899 64.4058 25.4665 64.819 25.7326 65.3468C25.9987 65.8795 26.1293 66.4869 26.1293 67.174C26.1243 67.3482 26.064 67.4827 25.9535 67.5922ZM21.2837 65.3119C20.8819 65.6604 20.6309 66.1284 20.5254 66.7109H24.9141C24.8338 66.1284 24.6128 65.6604 24.2563 65.3119C23.8948 64.9634 23.4278 64.7891 22.8453 64.7891C22.2026 64.7891 21.6803 64.9684 21.2837 65.3119Z" fill="white"/>
<path d="M37.2672 64.4009C37.7392 64.8988 37.9702 65.5908 37.9702 66.477V70.2161C37.9702 70.4053 37.9099 70.5646 37.7844 70.6941C37.6588 70.8186 37.4982 70.8833 37.2973 70.8833C37.1065 70.8833 36.9458 70.8186 36.8153 70.6941C36.6897 70.5696 36.6244 70.4103 36.6244 70.2161V66.477C36.6244 65.9443 36.4889 65.541 36.2227 65.2672C35.9566 64.9933 35.5951 64.8539 35.1482 64.8539C34.6912 64.8539 34.3146 65.0083 34.0234 65.3219C33.7271 65.6356 33.5815 66.0339 33.5815 66.5218V70.2062C33.5815 70.3953 33.5212 70.5547 33.3957 70.6841C33.2702 70.8086 33.1095 70.8733 32.9086 70.8733C32.7178 70.8733 32.5571 70.8086 32.4266 70.6841C32.301 70.5597 32.2358 70.4003 32.2358 70.2062V66.4671C32.2358 65.9343 32.1002 65.5311 31.8341 65.2572C31.5679 64.9834 31.2064 64.844 30.7595 64.844C30.2925 64.844 29.9159 64.9983 29.6196 65.312C29.3234 65.6257 29.1778 66.024 29.1778 66.5119V70.1962C29.1778 70.3854 29.1175 70.5447 28.992 70.6742C28.8664 70.7986 28.7057 70.8634 28.5049 70.8634C28.3141 70.8634 28.1534 70.7986 28.0228 70.6742C27.8973 70.5497 27.832 70.3904 27.832 70.1962V64.381C27.832 64.1818 27.8973 64.0175 28.0228 63.898C28.1484 63.7735 28.3091 63.7138 28.5049 63.7138C28.6957 63.7138 28.8564 63.7735 28.9769 63.8881C29.0974 64.0075 29.1677 64.1619 29.1727 64.3511C29.3987 64.127 29.6749 63.9478 29.9912 63.8233C30.3076 63.6989 30.649 63.6341 31.0206 63.6341C31.4675 63.6341 31.8692 63.7238 32.2257 63.903C32.5822 64.0822 32.8735 64.3361 33.0994 64.6697C33.3606 64.3461 33.692 64.0922 34.0886 63.9129C34.4853 63.7287 34.9222 63.6391 35.4042 63.6391C36.1775 63.654 36.7952 63.903 37.2672 64.4009Z" fill="white"/>
<path d="M40.3869 62.2997C40.2162 62.1304 40.1309 61.9262 40.1309 61.6922C40.1309 61.4582 40.2162 61.2541 40.3869 61.0848C40.5577 60.9156 40.7635 60.8309 40.9996 60.8309C41.2356 60.8309 41.4414 60.9156 41.6122 61.0848C41.7829 61.2541 41.8682 61.4582 41.8682 61.6922C41.8682 61.9262 41.7829 62.1304 41.6122 62.2997C41.4414 62.4689 41.2356 62.5536 40.9996 62.5536C40.7635 62.5536 40.5627 62.4739 40.3869 62.2997ZM40.5225 70.679C40.397 70.5545 40.3317 70.3952 40.3317 70.201V64.3858C40.3317 64.1866 40.397 64.0223 40.5225 63.9028C40.6481 63.7833 40.8087 63.7186 41.0046 63.7186C41.2054 63.7186 41.3711 63.7784 41.4916 63.9028C41.6122 64.0273 41.6774 64.1866 41.6774 64.3858V70.201C41.6774 70.3952 41.6172 70.5545 41.4916 70.679C41.3661 70.8035 41.2054 70.8682 41.0046 70.8682C40.8087 70.8682 40.6481 70.8035 40.5225 70.679Z" fill="white"/>
<path d="M45.1102 70.6444C44.5829 70.4602 44.1712 70.2212 43.8699 69.9275C43.7544 69.813 43.6992 69.6785 43.6992 69.5242C43.6992 69.3151 43.7845 69.1458 43.9603 69.0164C44.126 68.8969 44.2816 68.8321 44.4222 68.8321C44.598 68.8321 44.7637 68.9118 44.9244 69.0661C45.0901 69.2504 45.3411 69.4097 45.6776 69.5441C46.009 69.6785 46.3655 69.7482 46.7471 69.7482C47.2493 69.7482 47.6359 69.6636 47.9121 69.4993C48.1882 69.335 48.3289 69.111 48.3289 68.8321C48.3289 68.5633 48.1933 68.3392 47.9221 68.16C47.651 67.9808 47.189 67.8314 46.5362 67.7069C44.849 67.3833 44.0055 66.6962 44.0055 65.6407C44.0055 65.2125 44.131 64.8541 44.3871 64.5553C44.6432 64.2566 44.9746 64.0376 45.3863 63.8882C45.7981 63.7388 46.24 63.6641 46.7019 63.6641C47.2744 63.6641 47.7865 63.7538 48.2385 63.938C48.6904 64.1222 49.0469 64.3761 49.313 64.6948C49.4285 64.8342 49.4838 64.9736 49.4838 65.113C49.4838 65.2623 49.4085 65.3968 49.2578 65.5163C49.1624 65.586 49.0369 65.6208 48.8862 65.6208C48.6603 65.6208 48.4494 65.5362 48.2686 65.3719C48.0477 65.1727 47.8167 65.0283 47.5706 64.9487C47.3246 64.864 47.0283 64.8242 46.6768 64.8242C46.2751 64.8242 45.9387 64.8939 45.6826 65.0283C45.4215 65.1628 45.2959 65.352 45.2959 65.5959C45.2959 65.7702 45.3411 65.9146 45.4265 66.0341C45.5119 66.1486 45.6826 66.2581 45.9286 66.3577C46.1747 66.4572 46.5312 66.5568 46.9982 66.6514C47.9573 66.8406 48.6352 67.1095 49.0318 67.448C49.4336 67.7866 49.6294 68.2297 49.6294 68.7674C49.6294 69.1657 49.5189 69.5341 49.298 69.8578C49.077 70.1864 48.7557 70.4403 48.3289 70.6295C47.902 70.8187 47.3899 70.9083 46.7923 70.9083C46.1998 70.9183 45.6374 70.8286 45.1102 70.6444Z" fill="white"/>
<path d="M54.8038 69.7431C54.9143 69.8626 54.9696 70.0219 54.9696 70.2111C54.9696 70.4003 54.8993 70.5597 54.7536 70.6791C54.608 70.7986 54.4222 70.8634 54.1912 70.8634H53.9552C53.5234 70.8634 53.1317 70.7538 52.7752 70.5298C52.4187 70.3057 52.1425 70.002 51.9367 69.6236C51.7358 69.2403 51.6354 68.8121 51.6354 68.3291V65.1029H51.0278C50.842 65.1029 50.6914 65.0531 50.5809 64.9485C50.4654 64.844 50.4102 64.7145 50.4102 64.5552C50.4102 64.381 50.4654 64.2415 50.5809 64.137C50.6964 64.0324 50.842 63.9777 51.0278 63.9777H51.6354V62.0957C51.6354 61.9065 51.6956 61.7472 51.8212 61.6277C51.9417 61.5082 52.1024 61.4435 52.2932 61.4435C52.484 61.4435 52.6447 61.5032 52.7652 61.6277C52.8907 61.7521 52.951 61.9065 52.951 62.0957V63.9777H54.0707C54.2565 63.9777 54.4021 64.0275 54.5176 64.137C54.6331 64.2415 54.6884 64.381 54.6884 64.5552C54.6884 64.7096 54.6331 64.844 54.5176 64.9485C54.4021 65.0531 54.2515 65.1029 54.0707 65.1029H52.951V68.3291C52.951 68.6777 53.0464 68.9714 53.2422 69.2054C53.433 69.4394 53.674 69.5589 53.9552 69.5589H54.4021C54.5628 69.5589 54.6934 69.6236 54.8038 69.7431Z" fill="white"/>
<path d="M61.2377 63.8483C61.4988 63.9877 61.6344 64.1619 61.6344 64.371C61.6344 64.4308 61.6294 64.4756 61.6193 64.5005C61.539 64.7793 61.3632 64.9187 61.0921 64.9187C61.0469 64.9187 60.9816 64.9088 60.8962 64.8938C60.5447 64.8341 60.2585 64.7992 60.0426 64.7992C59.4099 64.7992 58.9027 64.9436 58.5161 65.2324C58.1295 65.5212 57.9386 65.9095 57.9386 66.3974V70.2112C57.9386 70.4203 57.8834 70.5796 57.7729 70.6941C57.6625 70.8087 57.4968 70.8634 57.2808 70.8634C57.0699 70.8634 56.9093 70.8086 56.7938 70.6991C56.6783 70.5896 56.623 70.4253 56.623 70.2112V64.371C56.623 64.1619 56.6783 64.0026 56.7938 63.8881C56.9093 63.7736 57.0699 63.7188 57.2808 63.7188C57.7177 63.7188 57.9386 63.9379 57.9386 64.371V64.62C58.1998 64.3163 58.5261 64.0773 58.9128 63.903C59.2994 63.7288 59.7112 63.6441 60.1531 63.6441C60.61 63.6392 60.9766 63.7089 61.2377 63.8483Z" fill="white"/>
<path d="M68.9295 64.2961C68.9295 64.3858 68.9044 64.4903 68.8491 64.6098L64.817 73.5966C64.7115 73.8654 64.5408 73.9998 64.3048 73.9998C64.2144 73.9998 64.109 73.9749 63.9885 73.9202C63.7273 73.8057 63.5918 73.6364 63.5918 73.4123C63.5918 73.3078 63.6169 73.2032 63.6721 73.0987L64.9927 70.1612L62.0301 64.5799C61.9849 64.5003 61.9648 64.4107 61.9648 64.3061C61.9648 64.1916 62 64.087 62.0703 63.9924C62.1406 63.8978 62.231 63.8232 62.3465 63.7684C62.4268 63.7335 62.5122 63.7186 62.6076 63.7186C62.8536 63.7186 63.0394 63.8381 63.1599 64.087L65.5702 68.8418L67.6942 64.097C67.8097 63.8431 67.9804 63.7186 68.2064 63.7186C68.3219 63.7186 68.4273 63.7385 68.5227 63.7833C68.7939 63.8879 68.9295 64.0572 68.9295 64.2961Z" fill="white"/>
<path d="M75.9074 62.3495C75.6111 62.6732 75.4605 63.0964 75.4605 63.6291V63.9826H76.8062C76.992 63.9826 77.1376 64.0324 77.2531 64.1419C77.3686 64.2465 77.4238 64.3859 77.4238 64.5601C77.4238 64.7145 77.3686 64.8489 77.2531 64.9535C77.1376 65.058 76.992 65.1078 76.8062 65.1078H75.4605V70.2011C75.4605 70.4003 75.4002 70.5646 75.2747 70.6841C75.1491 70.8036 74.9784 70.8683 74.7625 70.8683C74.5867 70.8683 74.4361 70.8085 74.3055 70.6841C74.175 70.5596 74.1147 70.4003 74.1147 70.2011V65.1078H73.5473C73.3615 65.1078 73.2109 65.058 73.1004 64.9535C72.9849 64.8489 72.9297 64.7194 72.9297 64.5601C72.9297 64.3859 72.9849 64.2465 73.1004 64.1419C73.2159 64.0374 73.3615 63.9826 73.5473 63.9826H74.1147V63.7585C74.1147 63.1412 74.2403 62.5985 74.4913 62.1305C74.7424 61.6674 75.0939 61.304 75.5458 61.0451C75.9977 60.7912 76.5149 60.6617 77.0924 60.6617C77.2832 60.6617 77.4439 60.7165 77.5744 60.831C77.7 60.9455 77.7653 61.0849 77.7653 61.2642C77.7653 61.4384 77.7 61.5828 77.5744 61.6973C77.4489 61.8118 77.2882 61.8666 77.0924 61.8666C76.6003 61.8666 76.2036 62.0259 75.9074 62.3495Z" fill="white"/>
<path d="M79.938 70.4552C79.3856 70.1466 78.9538 69.7184 78.6475 69.1657C78.3412 68.6181 78.1855 67.9957 78.1855 67.2987C78.1855 66.5917 78.3412 65.9644 78.6475 65.4167C78.9538 64.869 79.3856 64.4409 79.938 64.1272C80.4903 63.8185 81.118 63.6642 81.821 63.6642C82.514 63.6642 83.1366 63.8185 83.6839 64.1272C84.2313 64.4359 84.6631 64.8641 84.9744 65.4167C85.2858 65.9644 85.4414 66.5917 85.4414 67.2987C85.4414 67.9957 85.2858 68.6181 84.9795 69.1657C84.6731 69.7134 84.2413 70.1416 83.694 70.4552C83.1467 70.7639 82.519 70.9183 81.816 70.9183C81.113 70.9183 80.4903 70.7639 79.938 70.4552ZM83.0261 69.4296C83.3827 69.2205 83.6588 68.9317 83.8547 68.5633C84.0505 68.1949 84.1509 67.7717 84.1509 67.3037C84.1509 66.8357 84.0505 66.4125 83.8547 66.0341C83.6588 65.6607 83.3827 65.3669 83.0261 65.1578C82.6696 64.9487 82.2679 64.8441 81.821 64.8441C81.3741 64.8441 80.9724 64.9487 80.6159 65.1578C80.2594 65.3669 79.9832 65.6607 79.7773 66.0341C79.5765 66.4075 79.476 66.8307 79.476 67.3037C79.476 67.7717 79.5765 68.1949 79.7773 68.5633C79.9782 68.9317 80.2594 69.2255 80.6159 69.4296C80.9724 69.6387 81.3741 69.7433 81.821 69.7433C82.2679 69.7433 82.6696 69.6387 83.0261 69.4296Z" fill="white"/>
<path d="M92.0697 63.8483C92.3308 63.9877 92.4664 64.1619 92.4664 64.371C92.4664 64.4308 92.4614 64.4756 92.4513 64.5005C92.371 64.7793 92.1952 64.9187 91.9241 64.9187C91.8789 64.9187 91.8136 64.9088 91.7283 64.8938C91.3768 64.8341 91.0905 64.7992 90.8746 64.7992C90.2419 64.7992 89.7348 64.9436 89.3481 65.2324C88.9615 65.5212 88.7707 65.9095 88.7707 66.3974V70.2112C88.7707 70.4203 88.7154 70.5796 88.605 70.6941C88.4945 70.8087 88.3288 70.8634 88.1129 70.8634C87.902 70.8634 87.7413 70.8086 87.6258 70.6991C87.5103 70.5896 87.4551 70.4253 87.4551 70.2112V64.371C87.4551 64.1619 87.5103 64.0026 87.6258 63.8881C87.7413 63.7736 87.902 63.7188 88.1129 63.7188C88.5497 63.7188 88.7707 63.9379 88.7707 64.371V64.62C89.0318 64.3163 89.3582 64.0773 89.7448 63.903C90.1315 63.7288 90.5432 63.6441 90.9851 63.6441C91.442 63.6392 91.8086 63.7089 92.0697 63.8483Z" fill="white"/>
<path d="M102.816 64.142C103.363 64.4607 103.8 64.8938 104.121 65.4515C104.443 66.0041 104.604 66.6215 104.604 67.2986V70.2112C104.604 70.4004 104.538 70.5597 104.413 70.6892C104.287 70.8136 104.126 70.8784 103.931 70.8784C103.735 70.8784 103.579 70.8136 103.449 70.6892C103.323 70.5647 103.258 70.4054 103.258 70.2112V69.7283C102.951 70.1017 102.575 70.3954 102.138 70.6045C101.701 70.8136 101.224 70.9182 100.717 70.9182C100.084 70.9182 99.5119 70.7638 98.9997 70.4502C98.4875 70.1365 98.0808 69.7034 97.7895 69.1507C97.4933 68.5981 97.3477 67.9807 97.3477 67.3036C97.3477 66.6265 97.5033 66.0091 97.8197 65.4564C98.136 64.9038 98.5729 64.4657 99.1302 64.147C99.6876 63.8284 100.305 63.669 100.983 63.669C101.656 63.669 102.269 63.8284 102.816 64.142ZM102.173 69.4245C102.53 69.2105 102.806 68.9167 103.012 68.5483C103.218 68.1798 103.313 67.7616 103.313 67.3036C103.313 66.8405 103.213 66.4223 103.012 66.0489C102.811 65.6755 102.53 65.3818 102.173 65.1677C101.817 64.9536 101.42 64.849 100.978 64.849C100.541 64.849 100.14 64.9536 99.788 65.1677C99.4315 65.3818 99.1503 65.6755 98.9444 66.0489C98.7386 66.4223 98.6331 66.8405 98.6331 67.3036C98.6331 67.7666 98.7386 68.1798 98.9444 68.5483C99.1503 68.9167 99.4315 69.2105 99.788 69.4245C100.145 69.6386 100.541 69.7432 100.978 69.7432C101.42 69.7432 101.817 69.6386 102.173 69.4245Z" fill="white"/>
<path d="M116.072 64.1368C116.584 64.4504 116.991 64.8836 117.282 65.4362C117.578 65.9889 117.724 66.6063 117.724 67.2834C117.724 67.9605 117.568 68.5779 117.252 69.1305C116.935 69.6832 116.499 70.1213 115.941 70.4399C115.384 70.7586 114.766 70.9179 114.088 70.9179C113.41 70.9179 112.798 70.7586 112.25 70.4399C111.703 70.1213 111.266 69.6882 110.945 69.1305C110.624 68.5729 110.463 67.9605 110.463 67.2834V61.3238C110.463 61.1246 110.528 60.9603 110.654 60.8408C110.779 60.7213 110.94 60.6566 111.136 60.6566C111.337 60.6566 111.502 60.7163 111.623 60.8408C111.743 60.9603 111.809 61.1246 111.809 61.3238V64.8537C112.115 64.4803 112.492 64.1866 112.928 63.9775C113.365 63.7683 113.842 63.6638 114.349 63.6638C114.982 63.6688 115.56 63.8231 116.072 64.1368ZM115.283 69.4243C115.64 69.2102 115.921 68.9164 116.127 68.543C116.333 68.1696 116.438 67.7514 116.438 67.2884C116.438 66.8253 116.333 66.4121 116.127 66.0437C115.921 65.6752 115.64 65.3815 115.283 65.1674C114.927 64.9533 114.53 64.8487 114.093 64.8487C113.656 64.8487 113.255 64.9533 112.903 65.1674C112.547 65.3815 112.271 65.6752 112.065 66.0437C111.859 66.4121 111.763 66.8303 111.763 67.2884C111.763 67.7514 111.864 68.1696 112.065 68.543C112.266 68.9164 112.547 69.2102 112.903 69.4243C113.26 69.6384 113.656 69.7429 114.093 69.7429C114.53 69.7429 114.927 69.6384 115.283 69.4243Z" fill="white"/>
<path d="M126.024 67.5924C125.908 67.702 125.763 67.7567 125.587 67.7567H120.581C120.676 68.3642 120.957 68.8571 121.419 69.2354C121.881 69.6089 122.444 69.7981 123.111 69.7981C123.373 69.7981 123.649 69.7483 123.935 69.6537C124.221 69.5591 124.457 69.4396 124.638 69.3002C124.758 69.2056 124.904 69.1558 125.075 69.1558C125.241 69.1558 125.371 69.2006 125.472 69.2852C125.627 69.4147 125.708 69.564 125.708 69.7283C125.708 69.8877 125.637 70.0171 125.497 70.1217C125.2 70.3557 124.829 70.5499 124.382 70.6942C123.94 70.8436 123.513 70.9183 123.111 70.9183C122.393 70.9183 121.746 70.7639 121.173 70.4552C120.601 70.1466 120.159 69.7184 119.838 69.1657C119.516 68.6131 119.355 67.9957 119.355 67.2987C119.355 66.6017 119.506 65.9793 119.812 65.4217C120.114 64.869 120.536 64.4359 121.078 64.1272C121.62 63.8185 122.233 63.6642 122.916 63.6642C123.593 63.6642 124.176 63.8135 124.668 64.1073C125.16 64.406 125.537 64.8192 125.803 65.347C126.069 65.8797 126.2 66.4871 126.2 67.1742C126.2 67.3485 126.139 67.4829 126.024 67.5924ZM121.354 65.3121C120.952 65.6607 120.701 66.1287 120.596 66.7112H124.984C124.904 66.1287 124.683 65.6607 124.327 65.3121C123.965 64.9636 123.498 64.7894 122.916 64.7894C122.273 64.7894 121.756 64.9686 121.354 65.3121Z" fill="white"/>
<path d="M131.382 69.7431C131.492 69.8626 131.548 70.0219 131.548 70.2111C131.548 70.4003 131.477 70.5597 131.332 70.6791C131.186 70.7986 131 70.8634 130.769 70.8634H130.533C130.102 70.8634 129.71 70.7538 129.353 70.5298C128.997 70.3057 128.721 70.002 128.515 69.6236C128.314 69.2403 128.213 68.8121 128.213 68.3291V65.1029H127.606C127.42 65.1029 127.269 65.0531 127.159 64.9485C127.044 64.844 126.988 64.7145 126.988 64.5552C126.988 64.381 127.044 64.2415 127.159 64.137C127.274 64.0324 127.42 63.9777 127.606 63.9777H128.213V62.0957C128.213 61.9065 128.274 61.7472 128.399 61.6277C128.52 61.5082 128.68 61.4435 128.871 61.4435C129.062 61.4435 129.223 61.5032 129.343 61.6277C129.469 61.7521 129.529 61.9065 129.529 62.0957V63.9777H130.649C130.835 63.9777 130.98 64.0275 131.096 64.137C131.211 64.2415 131.266 64.381 131.266 64.5552C131.266 64.7096 131.211 64.844 131.096 64.9485C130.98 65.0531 130.83 65.1029 130.649 65.1029H129.529V68.3291C129.529 68.6777 129.624 68.9714 129.82 69.2054C130.011 69.4394 130.252 69.5589 130.533 69.5589H130.98C131.141 69.5589 131.272 69.6236 131.382 69.7431Z" fill="white"/>
<path d="M136.665 69.7431C136.776 69.8626 136.831 70.0219 136.831 70.2111C136.831 70.4003 136.761 70.5597 136.615 70.6791C136.469 70.7986 136.284 70.8634 136.053 70.8634H135.817C135.385 70.8634 134.993 70.7538 134.637 70.5298C134.28 70.3057 134.004 70.002 133.798 69.6236C133.597 69.2403 133.497 68.8121 133.497 68.3291V65.1029H132.889C132.703 65.1029 132.553 65.0531 132.442 64.9485C132.327 64.844 132.271 64.7145 132.271 64.5552C132.271 64.381 132.327 64.2415 132.442 64.137C132.558 64.0324 132.703 63.9777 132.889 63.9777H133.497V62.0957C133.497 61.9065 133.557 61.7472 133.682 61.6277C133.803 61.5082 133.964 61.4435 134.154 61.4435C134.345 61.4435 134.506 61.5032 134.627 61.6277C134.752 61.7521 134.812 61.9065 134.812 62.0957V63.9777H135.932C136.118 63.9777 136.263 64.0275 136.379 64.137C136.494 64.2415 136.55 64.381 136.55 64.5552C136.55 64.7096 136.494 64.844 136.379 64.9485C136.263 65.0531 136.113 65.1029 135.932 65.1029H134.812V68.3291C134.812 68.6777 134.908 68.9714 135.104 69.2054C135.294 69.4394 135.535 69.5589 135.817 69.5589H136.263C136.424 69.5589 136.555 69.6236 136.665 69.7431Z" fill="white"/>
<path d="M144.78 67.5923C144.664 67.7018 144.519 67.7566 144.343 67.7566H139.337C139.432 68.364 139.713 68.8569 140.175 69.2353C140.637 69.6087 141.2 69.7979 141.867 69.7979C142.129 69.7979 142.405 69.7481 142.691 69.6535C142.977 69.5589 143.213 69.4394 143.394 69.3C143.514 69.2054 143.66 69.1556 143.831 69.1556C143.997 69.1556 144.127 69.2004 144.228 69.2851C144.383 69.4145 144.464 69.5639 144.464 69.7282C144.464 69.8875 144.393 70.0169 144.253 70.1215C143.956 70.3555 143.585 70.5497 143.138 70.6941C142.696 70.8434 142.269 70.9181 141.867 70.9181C141.149 70.9181 140.502 70.7638 139.929 70.4551C139.357 70.1464 138.915 69.7182 138.594 69.1656C138.272 68.6179 138.112 67.9956 138.112 67.2985C138.112 66.6015 138.262 65.9791 138.568 65.4215C138.87 64.8689 139.292 64.4357 139.834 64.127C140.376 63.8183 140.989 63.664 141.672 63.664C142.35 63.664 142.932 63.8134 143.424 64.1071C143.916 64.4058 144.293 64.8191 144.559 65.3468C144.825 65.8796 144.956 66.487 144.956 67.1741C144.951 67.3483 144.89 67.4827 144.78 67.5923ZM140.105 65.312C139.703 65.6605 139.452 66.1285 139.347 66.711H143.735C143.655 66.1285 143.434 65.6605 143.078 65.312C142.716 64.9635 142.249 64.7892 141.667 64.7892C141.024 64.7892 140.507 64.9684 140.105 65.312Z" fill="white"/>
<path d="M151.288 63.8483C151.55 63.9877 151.685 64.1619 151.685 64.371C151.685 64.4308 151.68 64.4756 151.67 64.5005C151.59 64.7793 151.414 64.9187 151.143 64.9187C151.098 64.9187 151.032 64.9088 150.947 64.8938C150.596 64.8341 150.309 64.7992 150.093 64.7992C149.461 64.7992 148.954 64.9436 148.567 65.2324C148.18 65.5212 147.989 65.9095 147.989 66.3974V70.2112C147.989 70.4203 147.934 70.5796 147.824 70.6941C147.713 70.8087 147.548 70.8634 147.332 70.8634C147.121 70.8634 146.96 70.8086 146.845 70.6991C146.729 70.5896 146.674 70.4253 146.674 70.2112V64.371C146.674 64.1619 146.729 64.0026 146.845 63.8881C146.96 63.7736 147.121 63.7188 147.332 63.7188C147.768 63.7188 147.989 63.9379 147.989 64.371V64.62C148.251 64.3163 148.577 64.0773 148.964 63.903C149.35 63.7288 149.762 63.6441 150.204 63.6441C150.661 63.6392 151.022 63.7089 151.288 63.8483Z" fill="white"/>
<path d="M164.996 63.8632C165.087 63.9578 165.137 64.0923 165.137 64.2566C165.137 64.396 165.117 64.5204 165.072 64.635L163.123 70.4353C163.078 70.5548 162.998 70.6593 162.887 70.7439C162.772 70.8286 162.646 70.8684 162.506 70.8684C162.355 70.8684 162.225 70.8286 162.104 70.7439C161.983 70.6593 161.908 70.5597 161.873 70.4353L160.583 65.6905L159.227 70.4353C159.182 70.5548 159.101 70.6593 158.981 70.7439C158.86 70.8286 158.73 70.8684 158.594 70.8684C158.453 70.8684 158.323 70.8286 158.207 70.7439C158.087 70.6593 158.007 70.5597 157.961 70.4353L156.013 64.635C155.978 64.5204 155.963 64.4009 155.963 64.2715C155.963 63.9031 156.149 63.7238 156.515 63.7238C156.681 63.7238 156.822 63.7736 156.932 63.8682C157.042 63.9628 157.133 64.1172 157.203 64.3263L158.624 68.7275L159.97 64.2217C160.015 64.0723 160.09 63.9529 160.201 63.8632C160.311 63.7736 160.452 63.7238 160.628 63.7238C160.793 63.7238 160.934 63.7686 161.045 63.8632C161.155 63.9529 161.23 64.0723 161.275 64.2217L162.461 68.8221L163.912 64.3263C164.032 63.928 164.263 63.7238 164.595 63.7238C164.765 63.7188 164.906 63.7686 164.996 63.8632Z" fill="white"/>
<path d="M167.636 70.4552C167.083 70.1465 166.651 69.7184 166.345 69.1657C166.039 68.6131 165.883 67.9957 165.883 67.2987C165.883 66.5917 166.039 65.9643 166.345 65.4167C166.651 64.869 167.083 64.4408 167.636 64.1272C168.188 63.8185 168.816 63.6641 169.519 63.6641C170.211 63.6641 170.834 63.8185 171.381 64.1272C171.929 64.4359 172.361 64.864 172.672 65.4167C172.983 65.9643 173.139 66.5917 173.139 67.2987C173.139 67.9957 172.983 68.618 172.677 69.1657C172.371 69.7134 171.939 70.1416 171.391 70.4552C170.844 70.7639 170.216 70.9183 169.514 70.9183C168.811 70.9183 168.188 70.7639 167.636 70.4552ZM170.729 69.4296C171.085 69.2205 171.361 68.9317 171.557 68.5633C171.753 68.1949 171.853 67.7716 171.853 67.3036C171.853 66.8356 171.753 66.4124 171.557 66.0341C171.361 65.6606 171.085 65.3669 170.729 65.1578C170.372 64.9487 169.97 64.8441 169.524 64.8441C169.077 64.8441 168.675 64.9487 168.318 65.1578C167.962 65.3669 167.686 65.6606 167.48 66.0341C167.279 66.4075 167.179 66.8307 167.179 67.3036C167.179 67.7716 167.279 68.1949 167.48 68.5633C167.681 68.9317 167.962 69.2255 168.318 69.4296C168.675 69.6387 169.077 69.7433 169.524 69.7433C169.97 69.7433 170.372 69.6387 170.729 69.4296Z" fill="white"/>
<path d="M179.772 63.8483C180.033 63.9878 180.169 64.162 180.169 64.3711C180.169 64.4309 180.164 64.4757 180.154 64.5006C180.073 64.7794 179.898 64.9188 179.627 64.9188C179.581 64.9188 179.516 64.9088 179.431 64.8939C179.079 64.8341 178.793 64.7993 178.572 64.7993C177.939 64.7993 177.432 64.9437 177.046 65.2325C176.659 65.5212 176.468 65.9096 176.468 66.3975V70.2113C176.468 70.4204 176.413 70.5797 176.302 70.6942C176.192 70.8087 176.026 70.8635 175.81 70.8635C175.599 70.8635 175.439 70.8087 175.323 70.6992C175.208 70.5896 175.152 70.4254 175.152 70.2113V64.3711C175.152 64.162 175.208 64.0027 175.323 63.8882C175.439 63.7737 175.599 63.7189 175.81 63.7189C176.247 63.7189 176.468 63.938 176.468 64.3711V64.6201C176.729 64.3164 177.056 64.0774 177.442 63.9031C177.829 63.7289 178.241 63.6442 178.682 63.6442C179.144 63.6392 179.511 63.7089 179.772 63.8483Z" fill="white"/>
<path d="M182.243 70.5595C181.942 70.3554 181.706 70.0666 181.54 69.6982C181.374 69.3297 181.289 68.9115 181.289 68.4535V61.3188C181.289 61.1296 181.349 60.9703 181.475 60.8508C181.6 60.7313 181.756 60.6666 181.947 60.6666C182.138 60.6666 182.298 60.7264 182.419 60.8508C182.539 60.9703 182.605 61.1296 182.605 61.3188V68.4535C182.605 68.7771 182.665 69.041 182.79 69.2501C182.916 69.4592 183.072 69.5637 183.262 69.5637H183.594C183.77 69.5637 183.91 69.6235 184.021 69.748C184.131 69.8675 184.186 70.0268 184.186 70.216C184.186 70.4052 184.101 70.5645 183.935 70.684C183.77 70.8035 183.554 70.8682 183.293 70.8682H183.267C182.886 70.8682 182.544 70.7636 182.243 70.5595Z" fill="white"/>
<path d="M191.815 60.8461C191.936 60.9656 192.001 61.1299 192.001 61.3291V67.2887C192.001 67.9658 191.84 68.5832 191.519 69.1358C191.198 69.6885 190.766 70.1266 190.214 70.4453C189.666 70.7639 189.054 70.9232 188.376 70.9232C187.698 70.9232 187.08 70.7639 186.523 70.4453C185.965 70.1266 185.529 69.6935 185.212 69.1358C184.896 68.5832 184.74 67.9658 184.74 67.2887C184.74 66.6116 184.886 65.9942 185.182 65.4416C185.478 64.8889 185.88 64.4558 186.392 64.1421C186.904 63.8284 187.482 63.6741 188.11 63.6741C188.617 63.6741 189.094 63.7786 189.531 63.9878C189.967 64.1969 190.344 64.4906 190.65 64.864V61.334C190.65 61.1349 190.716 60.9706 190.841 60.8511C190.967 60.7316 191.127 60.6669 191.323 60.6669C191.529 60.6619 191.695 60.7266 191.815 60.8461ZM189.571 69.4246C189.927 69.2105 190.203 68.9168 190.409 68.5434C190.61 68.1699 190.711 67.7517 190.711 67.2887C190.711 66.8257 190.61 66.4124 190.409 66.044C190.208 65.6756 189.927 65.3818 189.571 65.1677C189.214 64.9536 188.818 64.8491 188.376 64.8491C187.939 64.8491 187.537 64.9536 187.186 65.1677C186.829 65.3818 186.548 65.6756 186.342 66.044C186.136 66.4124 186.031 66.8306 186.031 67.2887C186.031 67.7517 186.136 68.1699 186.342 68.5434C186.548 68.9168 186.829 69.2105 187.186 69.4246C187.542 69.6387 187.939 69.7433 188.376 69.7433C188.818 69.7433 189.214 69.6387 189.571 69.4246Z" fill="white"/>
<path d="M51.6401 5.68584C52.3581 5.68584 52.9607 5.46677 53.4277 5.03361C53.9097 4.5905 54.1658 3.98806 54.1658 3.29601C54.1658 2.594 53.9147 1.9816 53.4377 1.52355C52.9707 1.08044 52.3481 0.846436 51.635 0.846436H38.0774C37.3794 0.846436 36.7567 1.0904 36.2747 1.55343C35.7826 2.02641 35.5215 2.65872 35.5215 3.38065V23.5149C35.5215 24.212 35.7776 24.8343 36.2646 25.3173C36.7517 25.8002 37.3794 26.0541 38.0824 26.0541H51.6401C52.3581 26.0541 52.9808 25.8201 53.4427 25.377C53.9198 24.9239 54.1708 24.3115 54.1708 23.6095C54.1708 22.9175 53.9147 22.32 53.4327 21.8719C52.9607 21.4388 52.3631 21.2197 51.6451 21.2197H40.6483V15.7629H48.2557C48.9436 15.7629 49.5612 15.5339 50.0332 15.0958C50.5253 14.6427 50.7864 14.0353 50.7864 13.3432C50.7864 12.6562 50.5253 12.0487 50.0332 11.5907C49.5612 11.1575 48.9486 10.9235 48.2607 10.9235H40.6533V5.68584H51.6401Z" fill="white"/>
<path d="M24.7843 1.58326C24.2973 1.10032 23.6696 0.846397 22.9666 0.846397C22.0126 0.846397 21.2142 1.31938 20.6869 2.23548L12.9088 18.1179L4.87966 2.18072C4.38254 1.32436 3.58415 0.851376 2.63511 0.851376C1.93212 0.851376 1.30445 1.1053 0.817378 1.58824C0.330306 2.07118 0.0742188 2.69353 0.0742188 3.39057V23.5249C0.0742188 24.2219 0.330306 24.8442 0.817378 25.3272C1.7865 26.2931 3.4787 26.2881 4.44782 25.3272C4.9349 24.8442 5.19099 24.2219 5.19099 23.5249V13.2187L10.4584 23.6892C10.9254 24.6451 11.7539 25.1679 12.7984 25.1679C13.7022 25.1679 14.4554 24.7447 14.9826 23.9481L20.4057 13.0146V23.5249C20.4057 24.2219 20.6618 24.8442 21.1489 25.3272C21.636 25.8101 22.2636 26.064 22.9666 26.064C23.6445 26.064 24.2621 25.8151 24.7592 25.3371C25.2614 24.8542 25.5275 24.2269 25.5275 23.5249V3.38559C25.5275 2.68856 25.2714 2.0662 24.7843 1.58326Z" fill="white"/>
<path d="M75.541 15.7429C76.4951 15.1504 77.2885 14.3787 77.9061 13.4427C78.7296 12.193 79.1464 10.7491 79.1464 9.15593C79.1464 7.56271 78.7748 6.11388 78.0367 4.85424C77.2935 3.58465 76.244 2.58888 74.9134 1.88687C73.6028 1.1998 72.1115 0.85128 70.4695 0.85128H65.0715C64.3735 0.85128 63.7509 1.09524 63.2688 1.55827C62.7767 2.03126 62.5156 2.66357 62.5156 3.38549V23.5198C62.5156 24.2168 62.7717 24.8392 63.2588 25.3221C64.248 26.3029 65.9804 26.2731 66.9194 25.3072C67.3863 24.8292 67.6374 24.2069 67.6374 23.5198V17.1021H70.4594L75.3301 24.8541C75.8373 25.6408 76.5955 26.054 77.5195 26.054C78.4334 26.054 79.0058 25.6756 79.3221 25.3619C79.7791 24.9089 80.0201 24.3214 80.0201 23.6642C80.0201 23.1414 79.8695 22.6336 79.5682 22.1606L75.541 15.7429ZM74.1501 9.15593C74.1501 10.072 73.8288 10.7989 73.171 11.3665C72.473 11.9739 71.5892 12.2677 70.4695 12.2677H67.6324V5.6857H70.4695C71.5742 5.6857 72.4429 6.00434 73.1358 6.66155C73.8187 7.30381 74.1501 8.12034 74.1501 9.15593Z" fill="white"/>
<path d="M133.773 1.55837C133.281 2.03135 133.02 2.66366 133.02 3.38559V17.2715C133.02 18.1328 132.804 18.8796 132.357 19.5518C131.905 20.2388 131.287 20.7566 130.469 21.15C129.63 21.5483 128.656 21.7524 127.572 21.7524C126.427 21.7524 125.402 21.5483 124.529 21.145C123.68 20.7517 123.037 20.2289 122.565 19.5418C122.108 18.8697 121.882 18.1278 121.882 17.2715V3.38559C121.882 2.66864 121.631 2.04131 121.154 1.56832C120.22 0.642267 118.503 0.612394 117.519 1.55339C117.027 2.02637 116.766 2.65868 116.766 3.38061V17.2665C116.766 19.0639 117.238 20.6869 118.177 22.0959C119.106 23.495 120.411 24.5953 122.058 25.372C123.675 26.1387 125.533 26.5271 127.572 26.5271C129.555 26.5271 131.363 26.1387 132.945 25.372C134.556 24.5903 135.832 23.4801 136.736 22.0711C137.645 20.6571 138.106 19.039 138.106 17.2715V3.38559C138.106 2.66864 137.855 2.04131 137.378 1.56832C136.434 0.632309 134.747 0.622351 133.773 1.55837Z" fill="white"/>
<path d="M161.133 15.7431C162.087 15.1506 162.88 14.3789 163.498 13.4429C164.321 12.1932 164.738 10.7494 164.738 9.15617C164.738 7.56295 164.367 6.11412 163.628 4.85448C162.885 3.58488 161.836 2.58912 160.505 1.88711C159.195 1.20003 157.703 0.851517 156.061 0.851517H150.663C149.965 0.851517 149.343 1.09548 148.861 1.55851C148.369 2.03149 148.107 2.6638 148.107 3.38573V23.52C148.107 24.2171 148.363 24.8394 148.851 25.3224C149.84 26.3032 151.572 26.2733 152.511 25.3074C152.978 24.8294 153.229 24.2071 153.229 23.52V17.1023H156.051L160.922 24.8543C161.429 25.641 162.187 26.0542 163.111 26.0542C164.025 26.0542 164.598 25.6758 164.914 25.3622C165.371 24.9091 165.612 24.3216 165.612 23.6644C165.612 23.1416 165.461 22.6338 165.16 22.1608L161.133 15.7431ZM159.742 9.15617C159.742 10.0723 159.421 10.7992 158.763 11.3668C158.065 11.9742 157.181 12.2679 156.061 12.2679H153.224V5.68594H156.061C157.161 5.68594 158.035 6.00458 158.728 6.66178C159.41 7.30405 159.742 8.12057 159.742 9.15617Z" fill="white"/>
<path d="M191.374 1.59814C190.932 1.11022 190.35 0.85132 189.682 0.85132C188.738 0.85132 187.97 1.26456 187.457 2.05619L181.166 11.8844L174.979 2.15079C174.708 1.74751 174.427 1.4438 174.121 1.22971C173.282 0.647189 171.881 0.72685 171.002 1.5135C170.48 1.98151 170.209 2.5939 170.209 3.29094C170.209 3.78384 170.375 4.28172 170.696 4.7796L178.545 16.8731V23.5099C178.545 24.2069 178.801 24.8293 179.288 25.3122C179.775 25.7951 180.392 26.0491 181.075 26.0491C181.778 26.0491 182.406 25.7951 182.893 25.3122C183.38 24.8293 183.636 24.2069 183.636 23.5099V16.8831L191.55 4.77462C191.851 4.29665 192.002 3.79379 192.002 3.26604C192.002 2.62875 191.786 2.05121 191.374 1.59814Z" fill="white"/>
<path d="M105.844 15.6932V17.4756L98.6338 21.603L91.4231 17.4756V9.22075L98.6338 5.09332L105.844 9.22075V10.9982H110.916V8.96683C110.916 7.3288 110.027 5.80529 108.596 4.98876L100.949 0.612393C99.5176 -0.204131 97.74 -0.204131 96.3139 0.612393L88.6714 4.98876C87.2403 5.80529 86.3516 7.33378 86.3516 8.96683V17.7196C86.3516 19.3576 87.2403 20.8811 88.6714 21.7026L96.319 26.079C97.0219 26.4773 97.8204 26.6914 98.6338 26.6914C99.4473 26.6914 100.251 26.4773 100.954 26.079L108.596 21.7026C110.027 20.8861 110.916 19.3576 110.916 17.7196V15.6932H105.844Z" fill="white"/>
</svg>
