<svg xmlns="http://www.w3.org/2000/svg" width="609" height="88" viewBox="0 0 609 88" fill="none">
<path d="M60.2289 6.70021C61.0676 6.70021 61.7714 6.44205 62.3168 5.93161C62.8798 5.40943 63.179 4.6995 63.179 3.88396C63.179 3.05669 62.8857 2.33503 62.3285 1.79525C61.7831 1.27307 61.0558 0.997314 60.223 0.997314H44.3876C43.5724 0.997314 42.8451 1.28481 42.2821 1.83045C41.7073 2.38783 41.4023 3.13297 41.4023 3.98371V27.7106C41.4023 28.532 41.7015 29.2654 42.2704 29.8345C42.8393 30.4036 43.5724 30.7028 44.3935 30.7028H60.2289C61.0676 30.7028 61.7948 30.4271 62.3344 29.9049C62.8916 29.371 63.1848 28.6493 63.1848 27.822C63.1848 27.0065 62.8857 26.3024 62.3227 25.7744C61.7714 25.2639 61.0734 25.0058 60.2348 25.0058H47.3905V18.5754H56.2759C57.0794 18.5754 57.8008 18.3055 58.3521 17.7892C58.9269 17.2553 59.2318 16.5395 59.2318 15.7239C59.2318 14.9142 58.9269 14.1985 58.3521 13.6587C57.8008 13.1482 57.0853 12.8725 56.2818 12.8725H47.3963V6.70021H60.2289Z" fill="#801618"/>
<path d="M28.8615 1.86566C28.2926 1.29654 27.5595 0.997314 26.7384 0.997314C25.624 0.997314 24.6915 1.5547 24.0757 2.63426L14.9908 21.3505L5.61277 2.56972C5.03213 1.56056 4.0996 1.00318 2.99113 1.00318C2.17003 1.00318 1.43691 1.30241 0.868012 1.87152C0.299111 2.44064 0 3.17404 0 3.99544V27.7223C0 28.5437 0.299111 29.2771 0.868012 29.8462C1.99995 30.9844 3.97644 30.9786 5.10838 29.8462C5.67728 29.2771 5.9764 28.5437 5.9764 27.7223V15.5772L12.1287 27.9159C12.6742 29.0424 13.6419 29.6585 14.8618 29.6585C15.9175 29.6585 16.7973 29.1597 17.4131 28.221L23.7472 15.3367V27.7223C23.7472 28.5437 24.0464 29.2771 24.6153 29.8462C25.1842 30.4153 25.9173 30.7145 26.7384 30.7145C27.5301 30.7145 28.2515 30.4212 28.8322 29.8579C29.4187 29.2888 29.7295 28.5496 29.7295 27.7223V3.98957C29.7295 3.16817 29.4304 2.43477 28.8615 1.86566Z" fill="#801618"/>
<path d="M88.1434 18.5521C89.2577 17.8539 90.1844 16.9445 90.9058 15.8415C91.8677 14.3688 92.3544 12.6674 92.3544 10.7899C92.3544 8.91237 91.9204 7.20502 91.0583 5.72062C90.1903 4.2245 88.9645 3.05106 87.4103 2.22379C85.8795 1.41412 84.1376 1.00342 82.2198 1.00342H75.915C75.0997 1.00342 74.3725 1.29091 73.8094 1.83656C73.2347 2.39394 72.9297 3.13907 72.9297 3.98981V27.7167C72.9297 28.5381 73.2288 29.2715 73.7977 29.8406C74.9531 30.9964 76.9765 30.9612 78.0733 29.823C78.6187 29.2597 78.9119 28.5263 78.9119 27.7167V20.1539H82.208L87.8971 29.2891C88.4894 30.2161 89.375 30.7031 90.4542 30.7031C91.5216 30.7031 92.1902 30.2571 92.5597 29.8875C93.0934 29.3536 93.3749 28.6613 93.3749 27.8868C93.3749 27.2708 93.199 26.6723 92.8471 26.1149L88.1434 18.5521ZM86.5188 10.7899C86.5188 11.8694 86.1435 12.726 85.3751 13.3949C84.5599 14.1107 83.5277 14.4568 82.2198 14.4568H78.9061V6.70044H82.2198C83.5101 6.70044 84.5247 7.07594 85.3341 7.85041C86.1317 8.60727 86.5188 9.56949 86.5188 10.7899Z" fill="#801618"/>
<path d="M156.16 1.83642C155.585 2.3938 155.28 3.13893 155.28 3.98967V20.3532C155.28 21.3682 155.028 22.2483 154.506 23.0404C153.978 23.8501 153.256 24.4602 152.3 24.9237C151.321 25.3931 150.183 25.6337 148.916 25.6337C147.579 25.6337 146.383 25.3931 145.362 24.9179C144.371 24.4544 143.62 23.8383 143.069 23.0286C142.535 22.2366 142.271 21.3624 142.271 20.3532V3.98967C142.271 3.1448 141.978 2.40553 141.421 1.84815C140.33 0.756857 138.324 0.721654 137.175 1.83055C136.6 2.38793 136.295 3.13306 136.295 3.9838V20.3473C136.295 22.4654 136.846 24.3781 137.943 26.0385C139.028 27.6872 140.553 28.9838 142.477 29.8991C144.365 30.8027 146.535 31.2603 148.916 31.2603C151.233 31.2603 153.344 30.8027 155.192 29.8991C157.074 28.978 158.564 27.6696 159.62 26.0092C160.681 24.3429 161.221 22.4361 161.221 20.3532V3.98967C161.221 3.1448 160.928 2.40553 160.371 1.84815C159.268 0.745122 157.297 0.733388 156.16 1.83642Z" fill="#801618"/>
<path d="M188.116 18.5521C189.23 17.8539 190.157 16.9445 190.878 15.8415C191.84 14.3688 192.327 12.6674 192.327 10.7899C192.327 8.91237 191.893 7.20502 191.031 5.72062C190.163 4.2245 188.937 3.05106 187.383 2.22379C185.852 1.41412 184.11 1.00342 182.192 1.00342H175.888C175.072 1.00342 174.345 1.29091 173.782 1.83656C173.207 2.39394 172.902 3.13907 172.902 3.98981V27.7167C172.902 28.5381 173.201 29.2715 173.77 29.8406C174.926 30.9964 176.949 30.9612 178.046 29.823C178.591 29.2597 178.885 28.5263 178.885 27.7167V20.1539H182.181L187.87 29.2891C188.462 30.2161 189.348 30.7031 190.427 30.7031C191.494 30.7031 192.163 30.2571 192.532 29.8875C193.066 29.3536 193.348 28.6613 193.348 27.8868C193.348 27.2708 193.172 26.6723 192.82 26.1149L188.116 18.5521ZM186.491 10.7899C186.491 11.8694 186.116 12.726 185.348 13.3949C184.533 14.1107 183.5 14.4568 182.192 14.4568H178.879V6.70044H182.192C183.477 6.70044 184.497 7.07594 185.307 7.85041C186.104 8.60727 186.491 9.56949 186.491 10.7899Z" fill="#801618"/>
<path d="M223.438 1.88317C222.921 1.30819 222.241 1.0031 221.461 1.0031C220.358 1.0031 219.461 1.49007 218.863 2.42295L211.514 14.0048L204.289 2.53443C203.972 2.05919 203.643 1.70129 203.286 1.449C202.306 0.762541 200.67 0.856416 199.643 1.78343C199.033 2.33494 198.717 3.05661 198.717 3.87801C198.717 4.45886 198.91 5.04558 199.286 5.63229L208.453 19.8837V27.7046C208.453 28.526 208.752 29.2594 209.321 29.8285C209.89 30.3976 210.611 30.6969 211.409 30.6969C212.23 30.6969 212.963 30.3976 213.532 29.8285C214.101 29.2594 214.4 28.526 214.4 27.7046V19.8954L223.643 5.62643C223.995 5.06318 224.171 4.47059 224.171 3.84867C224.171 3.09768 223.919 2.41708 223.438 1.88317Z" fill="#801618"/>
<path d="M123.545 18.4933V20.5938L115.123 25.4577L106.701 20.5938V10.866L115.123 6.00212L123.545 10.866V12.9606H129.469V10.5668C129.469 8.63648 128.431 6.84112 126.759 5.87891L117.827 0.721662C116.155 -0.240554 114.079 -0.240554 112.413 0.721662L103.487 5.87891C101.815 6.84112 100.777 8.64235 100.777 10.5668V20.8813C100.777 22.8116 101.815 24.6069 103.487 25.575L112.419 30.7323C113.24 31.2016 114.173 31.4539 115.123 31.4539C116.073 31.4539 117.012 31.2016 117.833 30.7323L126.759 25.575C128.431 24.6128 129.469 22.8116 129.469 20.8813V18.4933H123.545Z" fill="#801618"/>
<path d="M248.257 29.4658C246.045 28.1437 244.302 26.3246 243.018 24.0179C241.743 21.7113 241.105 19.1702 241.105 16.3947C241.105 13.6473 241.743 11.1156 243.018 8.82774C244.292 6.53983 246.036 4.72076 248.257 3.3799C250.469 2.03903 252.916 1.37329 255.596 1.37329C257.499 1.37329 259.139 1.62646 260.536 2.12342C261.923 2.62038 263.329 3.45491 264.754 4.59886C265.054 4.8239 265.251 5.05832 265.354 5.29273C265.457 5.52715 265.504 5.81783 265.504 6.13663C265.504 6.64297 265.326 7.05555 264.96 7.37435C264.595 7.70254 264.182 7.86194 263.704 7.86194C263.226 7.86194 262.795 7.70254 262.392 7.37435C261.37 6.50232 260.367 5.86471 259.392 5.48027C258.418 5.09583 257.152 4.89891 255.606 4.89891C253.656 4.89891 251.856 5.41463 250.216 6.43669C248.576 7.45874 247.273 8.85587 246.317 10.6281C245.351 12.3909 244.873 14.3131 244.873 16.3947C244.873 18.4951 245.351 20.4267 246.317 22.1801C247.282 23.9336 248.585 25.3213 250.216 26.3527C251.856 27.3748 253.647 27.8905 255.606 27.8905C258.005 27.8905 260.311 27.0654 262.514 25.4151C262.936 25.115 263.348 24.965 263.751 24.965C264.229 24.965 264.623 25.1338 264.932 25.4713C265.241 25.8089 265.401 26.2496 265.401 26.8028C265.401 27.3279 265.204 27.7967 264.801 28.1906C262.101 30.3659 259.036 31.4536 255.606 31.4536C252.916 31.4536 250.469 30.7973 248.257 29.4658Z" fill="#801618"/>
<path d="M281.103 30.5112C280.728 30.1361 280.541 29.6766 280.541 29.1234V3.70328C280.541 3.1313 280.728 2.66247 281.103 2.29678C281.478 1.93109 281.938 1.75293 282.491 1.75293C283.062 1.75293 283.531 1.93109 283.897 2.29678C284.262 2.66247 284.44 3.1313 284.44 3.70328V14.4771H301.856V3.70328C301.856 3.1313 302.043 2.66247 302.418 2.29678C302.793 1.93109 303.252 1.75293 303.805 1.75293C304.358 1.75293 304.808 1.93109 305.174 2.29678C305.539 2.66247 305.717 3.1313 305.717 3.70328V29.1234C305.717 29.6954 305.539 30.1642 305.174 30.5299C304.808 30.8956 304.358 31.0738 303.805 31.0738C303.252 31.0738 302.793 30.8862 302.418 30.5112C302.043 30.1361 301.856 29.6766 301.856 29.1234V17.9371H284.44V29.1234C284.44 29.6766 284.262 30.1361 283.897 30.5112C283.531 30.8862 283.062 31.0738 282.491 31.0738C281.947 31.0738 281.478 30.8862 281.103 30.5112Z" fill="#801618"/>
<path d="M321.324 30.5156C320.949 30.1405 320.762 29.681 320.762 29.1278V3.70767C320.762 3.1357 320.949 2.66686 321.324 2.30117C321.699 1.93548 322.158 1.75732 322.711 1.75732H339.677C340.249 1.75732 340.717 1.92611 341.064 2.26367C341.411 2.60123 341.589 3.04193 341.589 3.59515C341.589 4.12024 341.411 4.54219 341.064 4.87038C340.717 5.19856 340.249 5.35797 339.677 5.35797H324.661V14.4815H335.431C335.984 14.4815 336.434 14.6502 336.799 14.9878C337.165 15.3254 337.343 15.7567 337.343 16.2818C337.343 16.8069 337.165 17.2382 336.799 17.5758C336.434 17.9133 335.984 18.0821 335.431 18.0821H324.661V27.4681H339.677C340.249 27.4681 340.717 27.6276 341.064 27.9557C341.411 28.2839 341.589 28.7059 341.589 29.231C341.589 29.7842 341.411 30.2249 341.064 30.5625C340.717 30.9 340.249 31.0688 339.677 31.0688H322.711C322.168 31.0782 321.708 30.8906 321.324 30.5156Z" fill="#801618"/>
<path d="M385.404 2.31553C385.779 2.6906 385.967 3.15943 385.967 3.70328V29.1234C385.967 29.6766 385.77 30.1361 385.386 30.5112C385.001 30.8862 384.542 31.0738 384.017 31.0738C383.464 31.0738 383.005 30.8862 382.63 30.5112C382.255 30.1361 382.068 29.6766 382.068 29.1234V10.4639L372.985 28.9734C372.563 29.6204 372.001 29.9486 371.298 29.9486C370.473 29.9486 369.873 29.5641 369.498 28.7859L360.528 10.8014V29.1234C360.528 29.6766 360.341 30.1361 359.966 30.5112C359.591 30.8862 359.132 31.0738 358.579 31.0738C358.025 31.0738 357.566 30.8862 357.191 30.5112C356.816 30.1361 356.629 29.6766 356.629 29.1234V3.70328C356.629 3.15005 356.816 2.6906 357.191 2.31553C357.566 1.94046 358.025 1.75293 358.579 1.75293C359.328 1.75293 359.9 2.09987 360.303 2.80312L371.448 25.1477L382.293 2.80312C382.696 2.09987 383.267 1.75293 384.017 1.75293C384.57 1.75293 385.03 1.94046 385.404 2.31553Z" fill="#801618"/>
<path d="M401.57 30.5112C401.195 30.1361 401.008 29.6766 401.008 29.1234V3.70328C401.008 3.1313 401.195 2.66247 401.57 2.29678C401.945 1.93109 402.404 1.75293 402.957 1.75293C403.529 1.75293 403.998 1.93109 404.363 2.29678C404.729 2.66247 404.907 3.1313 404.907 3.70328V29.1234C404.907 29.6766 404.729 30.1361 404.363 30.5112C403.998 30.8862 403.529 31.0738 402.957 31.0738C402.404 31.0738 401.945 30.8862 401.57 30.5112Z" fill="#801618"/>
<path d="M427.097 29.4658C424.885 28.1437 423.142 26.3246 421.857 24.0179C420.583 21.7113 419.945 19.1702 419.945 16.3947C419.945 13.6473 420.583 11.1156 421.857 8.82774C423.132 6.53983 424.876 4.72076 427.097 3.3799C429.309 2.03903 431.755 1.37329 434.436 1.37329C436.339 1.37329 437.979 1.62646 439.376 2.12342C440.763 2.62038 442.169 3.45491 443.594 4.59886C443.894 4.8239 444.091 5.05832 444.194 5.29273C444.297 5.52715 444.344 5.81783 444.344 6.13663C444.344 6.64297 444.165 7.05555 443.8 7.37435C443.434 7.70254 443.022 7.86194 442.544 7.86194C442.066 7.86194 441.635 7.70254 441.232 7.37435C440.21 6.50232 439.207 5.86471 438.232 5.48027C437.258 5.09583 435.992 4.89891 434.446 4.89891C432.496 4.89891 430.696 5.41463 429.056 6.43669C427.416 7.45874 426.113 8.85587 425.157 10.6281C424.191 12.3909 423.713 14.3131 423.713 16.3947C423.713 18.4951 424.191 20.4267 425.157 22.1801C426.122 23.9336 427.425 25.3213 429.056 26.3527C430.696 27.3748 432.487 27.8905 434.446 27.8905C436.845 27.8905 439.151 27.0654 441.354 25.4151C441.775 25.115 442.188 24.965 442.591 24.965C443.069 24.965 443.463 25.1338 443.772 25.4713C444.081 25.8089 444.24 26.2496 444.24 26.8028C444.24 27.3279 444.044 27.7967 443.641 28.1906C440.941 30.3659 437.876 31.4536 434.446 31.4536C431.755 31.4536 429.309 30.7973 427.097 29.4658Z" fill="#801618"/>
<path d="M484.563 29.1609C484.563 29.686 484.375 30.1361 484.001 30.5112C483.626 30.8862 483.166 31.0738 482.613 31.0738C482.238 31.0738 481.882 30.9706 481.545 30.755C481.207 30.5393 480.964 30.2486 480.814 29.8736L478.714 24.6132H465.236L463.098 29.8736C462.92 30.2486 462.677 30.5393 462.349 30.755C462.021 30.9706 461.674 31.0738 461.299 31.0738C460.746 31.0738 460.296 30.8769 459.93 30.4924C459.565 30.108 459.387 29.6485 459.387 29.1234C459.387 28.8703 459.452 28.5889 459.574 28.2608L470.119 3.06566C470.494 2.19363 471.103 1.75293 471.956 1.75293C472.856 1.75293 473.475 2.19363 473.793 3.06566L484.376 28.3358C484.497 28.664 484.563 28.9359 484.563 29.1609ZM466.548 21.3877H477.393L472.022 8.01654L466.548 21.3877Z" fill="#801618"/>
<path d="M500.143 30.5112C499.778 30.1361 499.6 29.6766 499.6 29.1234V3.70328C499.6 3.15005 499.787 2.6906 500.162 2.31553C500.537 1.94046 500.987 1.75293 501.512 1.75293C502.065 1.75293 502.524 1.94046 502.899 2.31553C503.274 2.6906 503.461 3.15943 503.461 3.70328V27.1731H517.052C517.605 27.1731 518.065 27.3606 518.44 27.7357C518.815 28.1107 519.002 28.5796 519.002 29.1234C519.002 29.6766 518.815 30.1361 518.44 30.5112C518.065 30.8862 517.605 31.0738 517.052 31.0738H501.512C500.959 31.0738 500.509 30.8862 500.143 30.5112Z" fill="#801618"/>
<path d="M6.78927 77.8826C4.6846 76.6305 3.02801 74.9207 1.81952 72.7665C0.61103 70.5989 0 68.2024 0 65.5905C0 63.0055 0.61103 60.6225 1.81952 58.4683C3.02801 56.3142 4.6846 54.6043 6.78927 53.3387C8.89395 52.0866 11.2159 51.4539 13.7551 51.4539C15.561 51.4539 17.1225 51.6827 18.4397 52.154C19.7568 52.6252 21.0875 53.4061 22.4453 54.4831C22.7305 54.6986 22.9206 54.914 23.0156 55.1428C23.1107 55.3717 23.165 55.6275 23.165 55.9372C23.165 56.4084 22.9885 56.7988 22.649 57.1085C22.3095 57.4182 21.9022 57.5663 21.4541 57.5663C21.006 57.5663 20.5851 57.4182 20.2049 57.1085C19.2272 56.2872 18.2767 55.6948 17.3534 55.3179C16.43 54.9544 15.2216 54.7659 13.7551 54.7659C11.9084 54.7659 10.1975 55.2506 8.63596 56.2199C7.07442 57.1893 5.83878 58.4952 4.92902 60.1512C4.01926 61.8073 3.55757 63.6248 3.55757 65.577C3.55757 67.5562 4.01926 69.3737 4.92902 71.0163C5.83878 72.6588 7.07442 73.9782 8.63596 74.9341C10.1975 75.9035 11.8948 76.3747 13.7551 76.3747C16.0363 76.3747 18.2224 75.5938 20.3135 74.0455C20.7208 73.7628 21.1146 73.6147 21.4948 73.6147C21.9429 73.6147 22.3231 73.7763 22.6219 74.0994C22.9206 74.4225 23.0699 74.8399 23.0699 75.3515C23.0699 75.8497 22.8798 76.2805 22.4996 76.6575C19.9333 78.7039 17.0275 79.7271 13.7686 79.7271C11.2159 79.7541 8.89395 79.1347 6.78927 77.8826Z" fill="#801618"/>
<path d="M42.7154 60.959C44.019 61.6591 45.0374 62.6958 45.7842 64.0556C46.5174 65.4154 46.8841 67.0445 46.8841 68.9429V77.6403C46.8841 78.1519 46.7075 78.5827 46.3681 78.9328C46.0286 79.2694 45.5941 79.4444 45.0645 79.4444C44.5485 79.4444 44.114 79.2694 43.761 78.9328C43.4215 78.5962 43.245 78.1653 43.245 77.6403V68.9429C43.245 67.0311 42.729 65.5905 41.697 64.6211C40.6651 63.6383 39.2936 63.1536 37.5827 63.1536C36.5915 63.1536 35.6818 63.3555 34.8535 63.7594C34.0252 64.1633 33.387 64.7019 32.9253 65.3885C32.4636 66.0751 32.2328 66.8291 32.2328 67.6908V77.6537C32.2328 78.1653 32.0699 78.5962 31.7304 78.9462C31.3909 79.2828 30.9564 79.4578 30.4133 79.4578C29.8973 79.4578 29.4628 79.2828 29.1097 78.9462C28.7703 78.6096 28.5938 78.1788 28.5938 77.6537V53.6349C28.5938 53.0964 28.7703 52.6521 29.1097 52.329C29.4492 52.0058 29.8837 51.8308 30.4133 51.8308C30.9564 51.8308 31.4045 51.9924 31.7304 52.329C32.0563 52.6521 32.2328 53.0964 32.2328 53.6349V62.2919C32.9932 61.538 33.8894 60.959 34.9349 60.5417C35.9805 60.1243 37.0939 59.9224 38.2888 59.9224C39.9454 59.8954 41.4119 60.2455 42.7154 60.959Z" fill="#801618"/>
<path d="M69.9815 70.5448C69.6692 70.841 69.2754 70.9891 68.8002 70.9891H55.2624C55.5204 72.6316 56.2808 73.9645 57.53 74.9877C58.7792 75.9975 60.3 76.5091 62.106 76.5091C62.8121 76.5091 63.5589 76.3745 64.3329 76.1187C65.1068 75.8629 65.745 75.5397 66.2339 75.1628C66.5597 74.907 66.9535 74.7723 67.4152 74.7723C67.8769 74.7723 68.2163 74.8935 68.4879 75.1224C68.9088 75.4724 69.1261 75.8763 69.1261 76.3206C69.1261 76.7515 68.936 77.1015 68.5558 77.3842C67.7546 78.017 66.7498 78.5421 65.5414 78.9325C64.3464 79.3364 63.1923 79.5384 62.106 79.5384C60.1642 79.5384 58.4126 79.121 56.8647 78.2863C55.3167 77.4515 54.1218 76.2937 53.2528 74.7992C52.3837 73.3183 51.9492 71.6353 51.9492 69.7504C51.9492 67.8656 52.3566 66.1826 53.1849 64.6747C53.9996 63.1803 55.1402 62.009 56.6067 61.1742C58.0732 60.3395 59.7297 59.9221 61.5764 59.9221C63.4095 59.9221 64.9846 60.326 66.3153 61.1204C67.646 61.9282 68.6644 63.0456 69.3841 64.4728C70.1037 65.9134 70.4568 67.5559 70.4568 69.4139C70.4432 69.8851 70.2803 70.2486 69.9815 70.5448ZM57.3535 64.3785C56.2672 65.321 55.5883 66.5865 55.3031 68.1618H67.1708C66.9535 66.5865 66.3561 65.321 65.392 64.3785C64.4143 63.4361 63.1515 62.9649 61.5764 62.9649C59.8383 62.9649 58.4262 63.4495 57.3535 64.3785Z" fill="#801618"/>
<path d="M100.575 61.9149C101.851 63.2613 102.476 65.1327 102.476 67.5292V77.6403C102.476 78.1519 102.313 78.5827 101.973 78.9328C101.634 79.2693 101.199 79.4444 100.656 79.4444C100.14 79.4444 99.7056 79.2693 99.3526 78.9328C99.0131 78.5962 98.8366 78.1653 98.8366 77.6403V67.5292C98.8366 66.0886 98.4699 64.9981 97.7503 64.2576C97.0306 63.5171 96.053 63.1401 94.8445 63.1401C93.6088 63.1401 92.5905 63.5575 91.8029 64.4057C91.0018 65.2539 90.608 66.3309 90.608 67.6504V77.6133C90.608 78.1249 90.445 78.5558 90.1056 78.9058C89.7661 79.2424 89.3316 79.4174 88.7885 79.4174C88.2725 79.4174 87.838 79.2424 87.4849 78.9058C87.1454 78.5692 86.9689 78.1384 86.9689 77.6133V67.5023C86.9689 66.0617 86.6023 64.9711 85.8826 64.2307C85.163 63.4902 84.1853 63.1132 82.9768 63.1132C81.714 63.1132 80.6956 63.5305 79.8945 64.3787C79.0934 65.2269 78.6996 66.304 78.6996 67.6234V77.5864C78.6996 78.098 78.5367 78.5288 78.1972 78.8789C77.8577 79.2155 77.4232 79.3905 76.8801 79.3905C76.3641 79.3905 75.9296 79.2155 75.5765 78.8789C75.2371 78.5423 75.0605 78.1115 75.0605 77.5864V61.8611C75.0605 61.3225 75.2371 60.8782 75.5765 60.5551C75.916 60.2185 76.3505 60.057 76.8801 60.057C77.3961 60.057 77.8306 60.2185 78.1565 60.5282C78.4823 60.8513 78.6724 61.2687 78.686 61.7803C79.2971 61.1744 80.0439 60.6898 80.8993 60.3532C81.7548 60.0166 82.6781 59.8416 83.6829 59.8416C84.8914 59.8416 85.9777 60.0839 86.9418 60.5686C87.9059 61.0533 88.6934 61.7399 89.3044 62.642C90.0105 61.7668 90.9067 61.0802 91.9794 60.5955C93.0521 60.0974 94.2335 59.855 95.537 59.855C97.6281 59.8954 99.2982 60.5686 100.575 61.9149Z" fill="#801618"/>
<path d="M109.013 56.2329C108.551 55.7752 108.32 55.2232 108.32 54.5904C108.32 53.9576 108.551 53.4056 109.013 52.9479C109.474 52.4901 110.031 52.2612 110.669 52.2612C111.308 52.2612 111.864 52.4901 112.326 52.9479C112.788 53.4056 113.018 53.9576 113.018 54.5904C113.018 55.2232 112.788 55.7752 112.326 56.2329C111.864 56.6907 111.308 56.9196 110.669 56.9196C110.031 56.9196 109.488 56.7042 109.013 56.2329ZM109.379 78.892C109.04 78.5554 108.863 78.1245 108.863 77.5995V61.8742C108.863 61.3356 109.04 60.8913 109.379 60.5682C109.719 60.2451 110.153 60.07 110.683 60.07C111.226 60.07 111.674 60.2316 112 60.5682C112.326 60.9048 112.502 61.3356 112.502 61.8742V77.5995C112.502 78.1245 112.34 78.5554 112 78.892C111.661 79.2286 111.226 79.4036 110.683 79.4036C110.153 79.4036 109.719 79.2286 109.379 78.892Z" fill="#801618"/>
<path d="M121.784 78.7986C120.359 78.3005 119.245 77.6542 118.43 76.8599C118.118 76.5502 117.969 76.1867 117.969 75.7693C117.969 75.2039 118.2 74.7461 118.675 74.3961C119.123 74.0729 119.544 73.8979 119.924 73.8979C120.399 73.8979 120.847 74.1133 121.282 74.5307C121.73 75.0289 122.409 75.4597 123.319 75.8232C124.215 76.1867 125.179 76.3752 126.211 76.3752C127.569 76.3752 128.614 76.1463 129.361 75.702C130.108 75.2577 130.488 74.6519 130.488 73.8979C130.488 73.1709 130.122 72.565 129.388 72.0803C128.655 71.5957 127.406 71.1918 125.641 70.8552C121.078 69.9801 118.797 68.1221 118.797 65.2678C118.797 64.11 119.136 63.1406 119.829 62.3328C120.522 61.525 121.418 60.9326 122.531 60.5287C123.645 60.1248 124.839 59.9229 126.089 59.9229C127.637 59.9229 129.022 60.1652 130.244 60.6633C131.466 61.1615 132.43 61.8481 133.15 62.7098C133.462 63.0868 133.611 63.4637 133.611 63.8407C133.611 64.2446 133.408 64.6081 133 64.9313C132.742 65.1197 132.403 65.214 131.995 65.214C131.384 65.214 130.814 64.9851 130.325 64.5408C129.728 64.0023 129.103 63.6118 128.438 63.3964C127.772 63.1675 126.971 63.0598 126.021 63.0598C124.935 63.0598 124.025 63.2483 123.332 63.6118C122.626 63.9754 122.287 64.487 122.287 65.1467C122.287 65.6179 122.409 66.0083 122.64 66.3315C122.871 66.6411 123.332 66.9373 123.998 67.2066C124.663 67.4759 125.627 67.7451 126.89 68.0009C129.483 68.5125 131.316 69.2396 132.389 70.1551C133.475 71.0706 134.005 72.2688 134.005 73.7229C134.005 74.8 133.706 75.7963 133.109 76.6714C132.511 77.56 131.642 78.2466 130.488 78.7582C129.334 79.2698 127.949 79.5122 126.333 79.5122C124.731 79.5391 123.21 79.2968 121.784 78.7986Z" fill="#801618"/>
<path d="M147.996 76.3613C148.295 76.6844 148.445 77.1153 148.445 77.6269C148.445 78.1385 148.254 78.5693 147.861 78.8925C147.467 79.2156 146.964 79.3906 146.34 79.3906H145.702C144.534 79.3906 143.475 79.0944 142.511 78.4885C141.547 77.8827 140.8 77.0614 140.243 76.0382C139.7 75.0015 139.428 73.8437 139.428 72.5377V63.8134H137.785C137.283 63.8134 136.876 63.6787 136.577 63.396C136.265 63.1133 136.115 62.7632 136.115 62.3324C136.115 61.8612 136.265 61.4842 136.577 61.2015C136.889 60.9187 137.283 60.7706 137.785 60.7706H139.428V55.6814C139.428 55.1698 139.591 54.739 139.931 54.4159C140.257 54.0927 140.691 53.9177 141.207 53.9177C141.723 53.9177 142.158 54.0793 142.484 54.4159C142.823 54.7525 142.986 55.1698 142.986 55.6814V60.7706H146.014C146.516 60.7706 146.91 60.9053 147.222 61.2015C147.535 61.4842 147.684 61.8612 147.684 62.3324C147.684 62.7498 147.535 63.1133 147.222 63.396C146.91 63.6787 146.503 63.8134 146.014 63.8134H142.986V72.5377C142.986 73.4801 143.244 74.2745 143.774 74.9073C144.29 75.54 144.941 75.8632 145.702 75.8632H146.91C147.345 75.8632 147.698 76.0382 147.996 76.3613Z" fill="#801618"/>
<path d="M165.395 60.4206C166.101 60.7976 166.467 61.2688 166.467 61.8342C166.467 61.9958 166.454 62.117 166.427 62.1843C166.209 62.9383 165.734 63.3152 165.001 63.3152C164.879 63.3152 164.702 63.2883 164.471 63.2479C163.521 63.0864 162.747 62.9921 162.163 62.9921C160.452 62.9921 159.081 63.3826 158.035 64.1634C156.99 64.9443 156.474 65.9945 156.474 67.3139V77.6269C156.474 78.1924 156.324 78.6232 156.026 78.9329C155.727 79.2425 155.279 79.3906 154.695 79.3906C154.125 79.3906 153.69 79.2425 153.378 78.9463C153.065 78.6501 152.916 78.2058 152.916 77.6269V61.8342C152.916 61.2688 153.065 60.838 153.378 60.5283C153.69 60.2187 154.125 60.0705 154.695 60.0705C155.876 60.0705 156.474 60.6629 156.474 61.8342V62.5074C157.18 61.6861 158.062 61.0399 159.108 60.5687C160.153 60.0975 161.267 59.8686 162.462 59.8686C163.697 59.8551 164.689 60.0436 165.395 60.4206Z" fill="#801618"/>
<path d="M186.195 61.6318C186.195 61.8742 186.127 62.1569 185.978 62.48L175.074 86.7816C174.789 87.5086 174.327 87.8721 173.689 87.8721C173.444 87.8721 173.159 87.8048 172.833 87.6567C172.127 87.347 171.761 86.8893 171.761 86.2834C171.761 86.0007 171.829 85.718 171.978 85.4352L175.549 77.4918L167.538 62.3993C167.416 62.1838 167.361 61.9415 167.361 61.6588C167.361 61.3491 167.456 61.0664 167.646 60.8106C167.837 60.5547 168.081 60.3528 168.393 60.2047C168.611 60.1105 168.841 60.0701 169.099 60.0701C169.765 60.0701 170.267 60.3932 170.593 61.0664L177.111 73.924L182.854 61.0933C183.167 60.4067 183.628 60.0701 184.239 60.0701C184.552 60.0701 184.837 60.1239 185.095 60.2451C185.828 60.5278 186.195 60.9856 186.195 61.6318Z" fill="#801618"/>
<path d="M205.064 56.3678C204.263 57.243 203.855 58.3874 203.855 59.8279V60.7838H207.494C207.997 60.7838 208.391 60.9185 208.703 61.2147C209.015 61.4974 209.165 61.8744 209.165 62.3456C209.165 62.763 209.015 63.1265 208.703 63.4092C208.391 63.692 207.997 63.8266 207.494 63.8266H203.855V77.5997C203.855 78.1383 203.692 78.5825 203.353 78.9057C203.013 79.2288 202.552 79.4038 201.968 79.4038C201.493 79.4038 201.085 79.2423 200.732 78.9057C200.379 78.5691 200.216 78.1383 200.216 77.5997V63.8266H198.682C198.179 63.8266 197.772 63.692 197.473 63.4092C197.161 63.1265 197.012 62.7764 197.012 62.3456C197.012 61.8744 197.161 61.4974 197.473 61.2147C197.786 60.9319 198.179 60.7838 198.682 60.7838H200.216V60.178C200.216 58.5085 200.556 57.041 201.235 55.7754C201.914 54.5233 202.864 53.5405 204.086 52.8404C205.308 52.1538 206.707 51.8037 208.268 51.8037C208.784 51.8037 209.219 51.9518 209.572 52.2615C209.911 52.5711 210.088 52.9481 210.088 53.4328C210.088 53.904 209.911 54.2945 209.572 54.6041C209.232 54.9138 208.798 55.0619 208.268 55.0619C206.938 55.0619 205.865 55.4927 205.064 56.3678Z" fill="#801618"/>
<path d="M215.964 78.287C214.47 77.4523 213.302 76.2944 212.474 74.8C211.646 73.319 211.225 71.6361 211.225 69.7512C211.225 67.8394 211.646 66.143 212.474 64.662C213.302 63.181 214.47 62.0232 215.964 61.175C217.457 60.3402 219.154 59.9229 221.055 59.9229C222.929 59.9229 224.613 60.3402 226.093 61.175C227.573 62.0097 228.741 63.1675 229.583 64.662C230.425 66.143 230.846 67.8394 230.846 69.7512C230.846 71.6361 230.425 73.319 229.596 74.8C228.768 76.281 227.6 77.4388 226.12 78.287C224.64 79.1217 222.943 79.5391 221.042 79.5391C219.141 79.5391 217.457 79.1217 215.964 78.287ZM224.314 75.5135C225.278 74.9481 226.025 74.1672 226.555 73.1709C227.084 72.1746 227.356 71.0302 227.356 69.7646C227.356 68.4991 227.084 67.3547 226.555 66.3315C226.025 65.3217 225.278 64.5273 224.314 63.9619C223.35 63.3964 222.264 63.1137 221.055 63.1137C219.847 63.1137 218.761 63.3964 217.797 63.9619C216.833 64.5273 216.086 65.3217 215.529 66.3315C214.986 67.3412 214.714 68.4856 214.714 69.7646C214.714 71.0302 214.986 72.1746 215.529 73.1709C216.072 74.1672 216.833 74.9615 217.797 75.5135C218.761 76.079 219.847 76.3617 221.055 76.3617C222.264 76.3617 223.35 76.079 224.314 75.5135Z" fill="#801618"/>
<path d="M248.77 60.4206C249.476 60.7976 249.842 61.2688 249.842 61.8342C249.842 61.9958 249.829 62.117 249.802 62.1843C249.584 62.9383 249.109 63.3152 248.376 63.3152C248.254 63.3152 248.077 63.2883 247.846 63.2479C246.896 63.0864 246.122 62.9921 245.538 62.9921C243.827 62.9921 242.456 63.3826 241.41 64.1634C240.365 64.9443 239.849 65.9945 239.849 67.3139V77.6269C239.849 78.1924 239.699 78.6232 239.401 78.9329C239.102 79.2425 238.654 79.3906 238.07 79.3906C237.5 79.3906 237.065 79.2425 236.753 78.9463C236.44 78.6501 236.291 78.2058 236.291 77.6269V61.8342C236.291 61.2688 236.44 60.838 236.753 60.5283C237.065 60.2187 237.5 60.0705 238.07 60.0705C239.251 60.0705 239.849 60.6629 239.849 61.8342V62.5074C240.555 61.6861 241.437 61.0399 242.483 60.5687C243.528 60.0975 244.642 59.8686 245.837 59.8686C247.072 59.8551 248.064 60.0436 248.77 60.4206Z" fill="#801618"/>
<path d="M277.83 61.2151C279.31 62.0767 280.491 63.2481 281.36 64.756C282.229 66.2504 282.664 67.9199 282.664 69.7509V77.627C282.664 78.1386 282.487 78.5695 282.148 78.9195C281.809 79.2561 281.374 79.4311 280.844 79.4311C280.315 79.4311 279.894 79.2561 279.541 78.9195C279.201 78.5829 279.025 78.1521 279.025 77.627V76.3211C278.197 77.3308 277.178 78.1252 275.997 78.6906C274.816 79.2561 273.526 79.5388 272.154 79.5388C270.443 79.5388 268.895 79.1215 267.51 78.2733C266.125 77.4251 265.025 76.2538 264.238 74.7593C263.437 73.2649 263.043 71.5954 263.043 69.7644C263.043 67.9333 263.464 66.2639 264.319 64.7694C265.175 63.275 266.356 62.0902 267.863 61.2285C269.371 60.3669 271.041 59.936 272.874 59.936C274.693 59.936 276.35 60.3669 277.83 61.2151ZM276.092 75.4998C277.056 74.9209 277.803 74.1265 278.36 73.1302C278.916 72.1339 279.174 71.003 279.174 69.7644C279.174 68.5123 278.903 67.3813 278.36 66.3716C277.816 65.3618 277.056 64.5675 276.092 63.9885C275.128 63.4096 274.055 63.1269 272.86 63.1269C271.679 63.1269 270.593 63.4096 269.642 63.9885C268.678 64.5675 267.918 65.3618 267.361 66.3716C266.804 67.3813 266.519 68.5123 266.519 69.7644C266.519 71.0165 266.804 72.1339 267.361 73.1302C267.918 74.1265 268.678 74.9209 269.642 75.4998C270.606 76.0787 271.679 76.3615 272.86 76.3615C274.055 76.3615 275.128 76.0787 276.092 75.4998Z" fill="#801618"/>
<path d="M313.675 61.2008C315.06 62.049 316.16 63.2203 316.947 64.7147C317.749 66.2092 318.142 67.8786 318.142 69.7097C318.142 71.5407 317.721 73.2102 316.866 74.7046C316.011 76.1991 314.829 77.3838 313.322 78.2455C311.815 79.1072 310.145 79.538 308.312 79.538C306.478 79.538 304.822 79.1072 303.342 78.2455C301.862 77.3838 300.68 76.2125 299.811 74.7046C298.942 73.1967 298.508 71.5407 298.508 69.7097V53.5939C298.508 53.0554 298.684 52.6111 299.024 52.2879C299.363 51.9648 299.798 51.7898 300.327 51.7898C300.87 51.7898 301.319 51.9513 301.644 52.2879C301.97 52.6111 302.147 53.0554 302.147 53.5939V63.1395C302.975 62.1297 303.994 61.3354 305.175 60.7699C306.356 60.2045 307.646 59.9217 309.018 59.9217C310.728 59.9352 312.29 60.3526 313.675 61.2008ZM311.543 75.499C312.507 74.92 313.268 74.1257 313.824 73.1159C314.381 72.1062 314.666 70.9752 314.666 69.7231C314.666 68.471 314.381 67.3535 313.824 66.3573C313.268 65.361 312.507 64.5666 311.543 63.9877C310.579 63.4088 309.506 63.126 308.325 63.126C307.144 63.126 306.058 63.4088 305.107 63.9877C304.143 64.5666 303.396 65.361 302.839 66.3573C302.283 67.3535 302.025 68.4845 302.025 69.7231C302.025 70.9752 302.296 72.1062 302.839 73.1159C303.383 74.1257 304.143 74.92 305.107 75.499C306.071 76.0779 307.144 76.3606 308.325 76.3606C309.506 76.3606 310.579 76.0779 311.543 75.499Z" fill="#801618"/>
<path d="M340.587 70.5455C340.275 70.8417 339.881 70.9898 339.406 70.9898H325.868C326.126 72.6324 326.886 73.9652 328.135 74.9885C329.385 75.9982 330.906 76.5098 332.711 76.5098C333.418 76.5098 334.164 76.3752 334.938 76.1194C335.712 75.8636 336.351 75.5405 336.839 75.1635C337.165 74.9077 337.559 74.773 338.021 74.773C338.469 74.773 338.822 74.8942 339.093 75.1231C339.514 75.4732 339.732 75.8771 339.732 76.3214C339.732 76.7522 339.541 77.1022 339.161 77.385C338.36 78.0177 337.355 78.5428 336.147 78.9333C334.952 79.3372 333.798 79.5391 332.711 79.5391C330.77 79.5391 329.018 79.1217 327.47 78.287C325.922 77.4523 324.727 76.2944 323.858 74.8C322.989 73.3055 322.555 71.6361 322.555 69.7512C322.555 67.8663 322.962 66.1834 323.79 64.6754C324.605 63.181 325.746 62.0097 327.212 61.175C328.679 60.3402 330.335 59.9229 332.182 59.9229C334.015 59.9229 335.59 60.3267 336.921 61.1211C338.252 61.9289 339.27 63.0464 339.99 64.4735C340.709 65.9141 341.062 67.5566 341.062 69.4146C341.062 69.8858 340.899 70.2493 340.587 70.5455ZM327.959 64.3792C326.873 65.3217 326.194 66.5873 325.909 68.1625H337.776C337.559 66.5873 336.962 65.3217 335.997 64.3792C335.02 63.4368 333.757 62.9656 332.182 62.9656C330.444 62.9656 329.045 63.4503 327.959 64.3792Z" fill="#801618"/>
<path d="M355.077 76.3613C355.375 76.6844 355.525 77.1153 355.525 77.6269C355.525 78.1385 355.335 78.5693 354.941 78.8925C354.547 79.2156 354.045 79.3906 353.42 79.3906H352.782C351.614 79.3906 350.555 79.0944 349.591 78.4885C348.627 77.8827 347.88 77.0614 347.323 76.0382C346.78 75.0015 346.508 73.8437 346.508 72.5377V63.8134H344.865C344.363 63.8134 343.956 63.6787 343.657 63.396C343.345 63.1133 343.195 62.7632 343.195 62.3324C343.195 61.8612 343.345 61.4842 343.657 61.2015C343.969 60.9187 344.363 60.7706 344.865 60.7706H346.508V55.6814C346.508 55.1698 346.671 54.739 347.011 54.4159C347.337 54.0927 347.771 53.9177 348.287 53.9177C348.803 53.9177 349.238 54.0793 349.564 54.4159C349.903 54.7525 350.066 55.1698 350.066 55.6814V60.7706H353.094C353.596 60.7706 353.99 60.9053 354.303 61.2015C354.615 61.4842 354.764 61.8612 354.764 62.3324C354.764 62.7498 354.615 63.1133 354.303 63.396C353.99 63.6787 353.583 63.8134 353.094 63.8134H350.066V72.5377C350.066 73.4801 350.324 74.2745 350.854 74.9073C351.37 75.54 352.021 75.8632 352.782 75.8632H353.99C354.425 75.8632 354.778 76.0382 355.077 76.3613Z" fill="#801618"/>
<path d="M369.364 76.3613C369.662 76.6844 369.812 77.1153 369.812 77.6269C369.812 78.1385 369.622 78.5693 369.228 78.8925C368.834 79.2156 368.332 79.3906 367.707 79.3906H367.069C365.901 79.3906 364.842 79.0944 363.878 78.4885C362.914 77.8827 362.167 77.0614 361.61 76.0382C361.067 75.0015 360.796 73.8437 360.796 72.5377V63.8134H359.153C358.65 63.8134 358.243 63.6787 357.944 63.396C357.632 63.1133 357.482 62.7632 357.482 62.3324C357.482 61.8612 357.632 61.4842 357.944 61.2015C358.256 60.9187 358.65 60.7706 359.153 60.7706H360.796V55.6814C360.796 55.1698 360.959 54.739 361.298 54.4159C361.624 54.0927 362.058 53.9177 362.574 53.9177C363.09 53.9177 363.525 54.0793 363.851 54.4159C364.19 54.7525 364.353 55.1698 364.353 55.6814V60.7706H367.381C367.884 60.7706 368.277 60.9053 368.59 61.2015C368.902 61.4842 369.051 61.8612 369.051 62.3324C369.051 62.7498 368.902 63.1133 368.59 63.396C368.277 63.6787 367.87 63.8134 367.381 63.8134H364.353V72.5377C364.353 73.4801 364.611 74.2745 365.141 74.9073C365.657 75.54 366.308 75.8632 367.069 75.8632H368.277C368.712 75.8632 369.065 76.0382 369.364 76.3613Z" fill="#801618"/>
<path d="M391.306 70.5448C390.993 70.841 390.6 70.9891 390.124 70.9891H376.587C376.845 72.6316 377.605 73.9645 378.854 74.9877C380.103 75.9975 381.624 76.5091 383.43 76.5091C384.136 76.5091 384.883 76.3745 385.657 76.1187C386.431 75.8629 387.069 75.5397 387.558 75.1628C387.884 74.907 388.278 74.7723 388.739 74.7723C389.188 74.7723 389.541 74.8935 389.812 75.1224C390.233 75.4724 390.45 75.8763 390.45 76.3206C390.45 76.7515 390.26 77.1015 389.88 77.3842C389.079 78.017 388.074 78.5421 386.866 78.9325C385.671 79.3364 384.516 79.5384 383.43 79.5384C381.488 79.5384 379.737 79.121 378.189 78.2863C376.641 77.4515 375.446 76.2937 374.577 74.7992C373.708 73.3183 373.273 71.6353 373.273 69.7504C373.273 67.8656 373.681 66.1826 374.509 64.6747C375.324 63.1803 376.464 62.009 377.931 61.1742C379.397 60.3395 381.054 59.9221 382.901 59.9221C384.734 59.9221 386.309 60.326 387.64 61.1204C388.97 61.9282 389.989 63.0456 390.708 64.4728C391.428 65.9134 391.781 67.5559 391.781 69.4139C391.767 69.8851 391.604 70.2486 391.306 70.5448ZM378.664 64.3785C377.578 65.321 376.899 66.5865 376.614 68.1618H388.481C388.264 66.5865 387.667 65.321 386.703 64.3785C385.725 63.4361 384.462 62.9649 382.887 62.9649C381.149 62.9649 379.75 63.4495 378.664 64.3785Z" fill="#801618"/>
<path d="M408.906 60.4206C409.612 60.7976 409.979 61.2688 409.979 61.8342C409.979 61.9958 409.966 62.117 409.938 62.1843C409.721 62.9383 409.246 63.3152 408.513 63.3152C408.39 63.3152 408.214 63.2883 407.983 63.2479C407.033 63.0864 406.259 62.9921 405.675 62.9921C403.964 62.9921 402.592 63.3826 401.547 64.1634C400.501 64.9443 399.985 65.9945 399.985 67.3139V77.6269C399.985 78.1924 399.836 78.6232 399.537 78.9329C399.238 79.2425 398.79 79.3906 398.207 79.3906C397.636 79.3906 397.202 79.2425 396.889 78.9463C396.577 78.6501 396.428 78.2058 396.428 77.6269V61.8342C396.428 61.2688 396.577 60.838 396.889 60.5283C397.202 60.2187 397.636 60.0705 398.207 60.0705C399.388 60.0705 399.985 60.6629 399.985 61.8342V62.5074C400.691 61.6861 401.574 61.0399 402.62 60.5687C403.665 60.0975 404.779 59.8686 405.973 59.8686C407.209 59.8551 408.187 60.0436 408.906 60.4206Z" fill="#801618"/>
<path d="M445.975 60.4612C446.219 60.717 446.355 61.0805 446.355 61.5248C446.355 61.9017 446.301 62.2383 446.178 62.548L440.91 78.2329C440.788 78.556 440.57 78.8388 440.272 79.0677C439.959 79.2965 439.62 79.4042 439.24 79.4042C438.832 79.4042 438.479 79.2965 438.153 79.0677C437.828 78.8388 437.624 78.5695 437.529 78.2329L434.039 65.4022L430.373 78.2329C430.251 78.556 430.033 78.8388 429.708 79.0677C429.382 79.2965 429.029 79.4042 428.662 79.4042C428.282 79.4042 427.929 79.2965 427.616 79.0677C427.291 78.8388 427.073 78.5695 426.951 78.2329L421.683 62.548C421.588 62.2383 421.547 61.9152 421.547 61.5652C421.547 60.5689 422.049 60.0842 423.04 60.0842C423.489 60.0842 423.869 60.2188 424.168 60.4746C424.466 60.7304 424.711 61.1478 424.901 61.7133L428.743 73.6149L432.383 61.4305C432.505 61.0266 432.708 60.7035 433.007 60.4612C433.306 60.2188 433.686 60.0842 434.161 60.0842C434.609 60.0842 434.99 60.2054 435.288 60.4612C435.587 60.7035 435.791 61.0266 435.913 61.4305L439.117 73.8708L443.042 61.7133C443.368 60.6362 443.992 60.0842 444.888 60.0842C445.35 60.0707 445.73 60.2054 445.975 60.4612Z" fill="#801618"/>
<path d="M453.112 78.287C451.618 77.4523 450.451 76.2944 449.622 74.8C448.794 73.3055 448.373 71.6361 448.373 69.7512C448.373 67.8394 448.794 66.143 449.622 64.662C450.451 63.181 451.618 62.0232 453.112 61.175C454.606 60.3402 456.303 59.9229 458.204 59.9229C460.078 59.9229 461.762 60.3402 463.242 61.175C464.722 62.0097 465.889 63.1675 466.731 64.662C467.573 66.143 467.994 67.8394 467.994 69.7512C467.994 71.6361 467.573 73.319 466.745 74.8C465.917 76.281 464.749 77.4388 463.269 78.287C461.789 79.1217 460.091 79.5391 458.19 79.5391C456.289 79.5391 454.606 79.1217 453.112 78.287ZM461.476 75.5135C462.44 74.9481 463.187 74.1672 463.717 73.1709C464.246 72.1746 464.518 71.0302 464.518 69.7646C464.518 68.4991 464.246 67.3547 463.717 66.3315C463.187 65.3217 462.44 64.5273 461.476 63.9619C460.512 63.3964 459.426 63.1137 458.217 63.1137C457.009 63.1137 455.923 63.3964 454.959 63.9619C453.995 64.5273 453.248 65.3217 452.691 66.3315C452.148 67.3412 451.876 68.4856 451.876 69.7646C451.876 71.0302 452.148 72.1746 452.691 73.1709C453.234 74.1672 453.995 74.9615 454.959 75.5135C455.923 76.079 457.009 76.3617 458.217 76.3617C459.426 76.3617 460.512 76.079 461.476 75.5135Z" fill="#801618"/>
<path d="M485.93 60.4206C486.636 60.7976 487.002 61.2688 487.002 61.8342C487.002 61.9958 486.989 62.117 486.962 62.1843C486.745 62.9383 486.269 63.3152 485.536 63.3152C485.414 63.3152 485.237 63.2883 485.006 63.2479C484.056 63.0864 483.282 62.9921 482.684 62.9921C480.974 62.9921 479.602 63.3826 478.557 64.1634C477.511 64.9443 476.995 65.9945 476.995 67.3139V77.6269C476.995 78.1924 476.846 78.6232 476.547 78.9329C476.248 79.2425 475.8 79.3906 475.216 79.3906C474.646 79.3906 474.212 79.2425 473.899 78.9463C473.587 78.6501 473.438 78.2058 473.438 77.6269V61.8342C473.438 61.2688 473.587 60.838 473.899 60.5283C474.212 60.2187 474.646 60.0705 475.216 60.0705C476.398 60.0705 476.995 60.6629 476.995 61.8342V62.5074C477.701 61.6861 478.584 61.0399 479.629 60.5687C480.675 60.0975 481.788 59.8686 482.983 59.8686C484.232 59.8551 485.224 60.0436 485.93 60.4206Z" fill="#801618"/>
<path d="M492.613 78.5688C491.798 78.0168 491.16 77.2359 490.712 76.2396C490.264 75.2433 490.033 74.1124 490.033 72.8738V53.5806C490.033 53.069 490.196 52.6382 490.536 52.315C490.875 51.9919 491.296 51.8169 491.812 51.8169C492.328 51.8169 492.762 51.9785 493.088 52.315C493.414 52.6382 493.591 53.069 493.591 53.5806V72.8738C493.591 73.7489 493.754 74.4624 494.093 75.0279C494.433 75.5934 494.854 75.8761 495.37 75.8761H496.266C496.741 75.8761 497.121 76.0377 497.42 76.3743C497.719 76.6974 497.868 77.1282 497.868 77.6398C497.868 78.1514 497.637 78.5823 497.189 78.9054C496.741 79.2285 496.157 79.4035 495.451 79.4035H495.383C494.351 79.4035 493.428 79.1208 492.613 78.5688Z" fill="#801618"/>
<path d="M518.497 52.3023C518.823 52.6254 519 53.0697 519 53.6083V69.724C519 71.555 518.565 73.2245 517.696 74.719C516.827 76.2134 515.659 77.3982 514.166 78.2599C512.686 79.1215 511.029 79.5524 509.196 79.5524C507.363 79.5524 505.693 79.1215 504.186 78.2599C502.678 77.3982 501.497 76.2269 500.642 74.719C499.786 73.2245 499.365 71.555 499.365 69.724C499.365 67.893 499.759 66.2235 500.56 64.7291C501.361 63.2346 502.448 62.0633 503.833 61.2151C505.218 60.3669 506.779 59.9496 508.476 59.9496C509.848 59.9496 511.138 60.2323 512.319 60.7978C513.5 61.3632 514.519 62.1576 515.347 63.1673V53.6217C515.347 53.0832 515.524 52.6389 515.863 52.3158C516.203 51.9926 516.637 51.8176 517.167 51.8176C517.723 51.8042 518.171 51.9792 518.497 52.3023ZM512.428 75.4999C513.392 74.9209 514.139 74.1266 514.695 73.1168C515.239 72.1071 515.51 70.9761 515.51 69.724C515.51 68.4719 515.239 67.3544 514.695 66.3582C514.152 65.3619 513.392 64.5675 512.428 63.9886C511.464 63.4097 510.391 63.1269 509.196 63.1269C508.015 63.1269 506.928 63.4097 505.978 63.9886C505.014 64.5675 504.254 65.3619 503.697 66.3582C503.14 67.3544 502.855 68.4854 502.855 69.724C502.855 70.9761 503.14 72.1071 503.697 73.1168C504.254 74.1266 505.014 74.9209 505.978 75.4999C506.942 76.0788 508.015 76.3615 509.196 76.3615C510.391 76.3615 511.464 76.0788 512.428 75.4999Z" fill="#801618"/>
</svg>